<?xml version="1.0" encoding="utf-8"?>
<!-- Generator: Adobe Illustrator 23.0.1, SVG Export Plug-In . SVG Version: 6.00 Build 0)  -->
<svg version="1.1" id="Capa_1" xmlns="http://www.w3.org/2000/svg" xmlns:xlink="http://www.w3.org/1999/xlink" x="0px" y="0px"
	 viewBox="0 0 194.12 194.12" style="enable-background:new 0 0 194.12 194.12;" xml:space="preserve">
<style type="text/css">
	.st0{opacity:0.8;}
	.st1{fill:#CBE7E7;}
	.st2{fill:#D1EAEA;}
	.st3{fill:#CBE3CB;}
	.st4{fill:#FF7993;}
</style>
<g>
	<g class="st0">
		<path class="st1" d="M132.77,155.28c10.35-16.7,12.32-31.37,14.95-46.77c1.58-9.2,3.16-18.59,1.92-27.83
			c-1.83-13.68-9.92-25.8-20.43-33.5c-10.52-7.7-23.26-11.27-35.95-12c-8.47-0.48-17.32,0.35-24.73,4.88
			c-16.25,9.94-20.05,33.13-22.09,53.26c-0.81,8.01-1.62,16.02-2.44,24.03c-0.84,8.32-1.69,16.76-0.52,25.03
			c3,21.19,20.29,38.62,39.85,41.15S123.21,174.09,132.77,155.28"/>
		<g>
			<g>
				<g>
					<g>
						<polygon class="st2" points="130.2,153.97 129.97,154.06 130.13,154.68 						"/>
						<path class="st2" d="M129.53,157.22c0.12-0.04,0.21,0.07,0.33,0.02l-0.21-2.26C128.62,155.35,130.23,156.97,129.53,157.22z"/>
						<path class="st2" d="M129.15,157.64c-0.65,0.45-0.31,1.02-0.23,1.28C128.67,158.45,129.8,157.85,129.15,157.64z"/>
						<path class="st2" d="M74.32,179.39c0.06,0.02,0.15,0.04,0.23,0.04C74.44,179.38,74.37,179.37,74.32,179.39z"/>
						<path class="st2" d="M58.88,171.98l-0.46,0.22c1.44,0.87,2.85,1.87,4.16,3.06c0.7,0.54,1.41,1.08,2.13,1.6
							c0.36,0.26,0.72,0.51,1.1,0.74c0.39,0.21,0.78,0.41,1.18,0.58l-0.29,0.03c0.95,0.55,1.86,1.17,2.85,1.62
							c0.98,0.46,1.96,0.91,2.94,1.33c1.01,0.34,2.02,0.68,3.03,1.01c1.01,0.32,2.06,0.49,3.08,0.74c4.14,0.81,8.35,0.91,12.61,0.48
							c-0.13,0.06-0.17,0.21-0.3,0.28c0.41-0.2,0.84-0.55,1.3-0.55c0.13,0.09-0.11,0.23-0.25,0.3c1.92,0.71,5.2-1.2,6.4-0.86
							c0.48-0.21,0.61-0.59,0.28-0.76c0.8-0.23,1.6-0.47,2.41-0.71c0.8-0.26,1.58-0.59,2.38-0.89l1.19-0.46l1.16-0.55
							c0.77-0.37,1.55-0.73,2.31-1.13c3-1.68,5.86-3.62,8.31-5.91c0.32-0.1,0.5,0.03,0.6,0.3c0.93-1.14,1.88-2.25,2.89-3.29
							c0.47-0.55,0.96-1.09,1.46-1.62c0.5-0.53,1.02-1.04,1.49-1.6c0.96-1.1,2-2.13,2.9-3.28l1.41-1.68l1.28-1.78
							c-0.16-0.37-0.62,0.3-0.6-0.37c-0.7,0.64-0.94,1.5-1.31,2.25c-0.36,0.76-0.73,1.51-1.48,1.98l-0.12-0.37
							c-0.92,0.82,0.52,0.74-0.64,1.43c-0.54,0.2-0.23-0.36-0.41-0.2c-1.59,2.06-3.66,3.76-4.99,5.96
							c-0.93-0.16-2.13,1.83-3.35,1.82c-0.37,0.62-0.96,0.96-0.89,1.49c-3.84,2.47-7.9,4.67-12.24,6.28
							c-4.33,1.61-8.97,2.61-13.63,2.59c-0.54,0.17-1.11,0.3-1.69,0.39c-0.58,0.04-1.17,0.04-1.77,0.01
							c-0.6-0.03-1.21-0.08-1.82-0.16c-0.61-0.13-1.21-0.28-1.83-0.43c-0.61-0.16-1.23-0.29-1.84-0.5
							c-0.61-0.21-1.21-0.42-1.83-0.64c-1.24-0.36-2.44-0.87-3.7-1.21c-0.02-0.06,0.01-0.1,0.06-0.13c-0.87-0.1-1.86-0.45-2.87-0.87
							c-0.51-0.21-1.02-0.43-1.51-0.67c-0.48-0.27-0.93-0.57-1.35-0.86l-1.8-0.38c-4.95-3.79-9.4-8.19-13.11-13.2
							c-3.65-5.04-6.41-10.82-7.68-16.91c-1.52-6.9-1.08-13.64-0.56-20.29c0.58-6.68,1.16-13.46,0.95-20.62
							c0.13,0.03,0.21-0.08,0.23,0.3c0.14-4.11,1.01-7.79,1.11-11.66l0.13,0.03c-0.08-4.82,0.53-9.76,1.35-14.61
							c0.82-4.86,1.85-9.58,2.6-14.16c1.7-5.32,3.93-10.91,7.36-15.87c3.44-4.91,8.08-9.18,13.55-11.57l0.08,0.26
							c4.27-2.09,9.04-2.67,13.67-2.65c4.65,0.02,9.26,0.62,13.95,1.06c4.73,1.02,9.64,1.8,14.47,3.22
							c2.42,0.69,4.79,1.57,7.06,2.66c2.27,1.08,4.42,2.4,6.31,4c2.11,2.28,5,4.2,7.69,6.47c2.69,2.23,5.15,4.82,6.15,7.61
							c2.37,5.49,4.43,10.73,5.91,16.24c1.52,5.47,2.25,11.29,2.35,17.25c-0.84,5.41-1.53,10.8-2.24,16.15
							c-0.71,5.33-1.5,10.67-3.4,15.66c-0.09,2.54-1.01,5.05-2.17,7.52c-1.14,2.48-2.47,4.91-3.36,7.51l0.39-0.06
							c-1.64,1.44-0.42,4.65-2.32,5.16l0.03-0.22c-1.15,0.6,0.54,2.99-0.56,3.17l0.26,0.33c-0.51,1.19-0.45-0.06-1.06,0.74
							c-0.14,0.35,0.54,0.45-0.02,1.03c-0.72-0.3-1.02,0.43-1.34,1.14c-0.34,0.69-0.7,1.37-1.47,0.96c0.35-0.59-1.13,0.58-0.66-0.93
							c-0.38,0.29-1.37,2.13-0.65,2.36c0.57,0.57,0.72,1.65,1.91,0.85l-0.35-0.53c0.71-0.08,0.42-0.14,0.86-0.05
							c0.93-1.44,1.8-1.21,2.7-2.14c-0.02,0-0.04,0.01-0.06-0.03c-0.19-1.08,0.72-1.92,1.13-2.47l0.41-0.09
							c0.78-0.07-0.29-2.36,0.5-1.38c1.33-3.29,2.95-7.01,4.21-10.75c-0.22-0.66,0.97-2.85-0.09-2.29c1.23-0.63,2.29-3.4,2.53-4.46
							c0.08,0.06,0.16,0.13,0.09,0.29c1.74-1.74-0.47-2.7,1.45-4.27c-0.96-0.53,1.12-3.44,0.1-4.78c0.28-0.19,0.51-0.23,0.68-0.1
							c0.72-3.47,1.75-7.23,2.29-10.14c-0.51-2.64,1.45-5.95,0.52-8.33c0.56-1.74,1.54-4.6,1.31-7.22l0.13,0.27
							c0.28-2.88,0.43-6.56-0.38-8.57c1.26-0.85,1-2.14,1.34-3.44c-0.33-0.98-0.51-2.47-0.82-4.09c-0.31-1.61-0.68-3.35-1.29-4.76
							c0.49-0.6-0.84-2.35-0.09-2.72c-1.92-3.9-4.01-8.06-6.4-12.16c-2.38-4.1-5.09-8.13-7.95-11.73l0.14,0.05
							c-1.18-0.49-2.84-0.66-4.11-0.94c-0.04-0.13,0.06-0.23,0.24-0.06c-0.66-0.47-1.15-1.09-1.68-1.69
							c-0.52-0.61-1.04-1.23-1.76-1.62c0.09-0.1,0.09-0.11,0.38-0.06c-1.44-0.58-2.25-2.35-4.15-2.72l0.02-0.24L124.47,42
							c0.16-0.23,0.4-0.56,0.89-0.18c-6.05-3.66-12.98-5.87-19.99-7.02c-3.51-0.58-7.05-0.9-10.59-1.06
							c-3.54-0.16-7.09-0.18-10.66,0.09l0.5-0.3c-0.91,0.22-1.82,0.48-2.71,0.75c0-0.14,0.12-0.22,0.24-0.3
							c-1.79,0-3.58,0.41-5.31,0.97c-1.73,0.57-3.37,1.31-4.99,1.94c-0.04-0.13,0.35-0.59-0.17-0.53c-1.05,0.85-2.08,1.11-2.94,1.42
							c-0.85,0.31-1.52,0.66-1.61,1.7c-0.14,0.01-0.4-0.24-0.25-0.5c-0.72,0.57-1.43,1.13-2.15,1.7c-0.68,0.61-1.32,1.26-1.99,1.88
							c-0.69,0.6-1.28,1.29-1.88,1.98c-0.58,0.7-1.26,1.32-1.77,2.08l-1.64,2.17c-0.51,0.74-0.98,1.52-1.48,2.27
							c-0.52,0.75-0.95,1.53-1.38,2.32c-0.42,0.79-0.91,1.55-1.29,2.36c-0.26,1.52-0.77,2.95-1.17,4.43
							c-0.22,0.74-0.46,1.47-0.72,2.2c-0.23,0.74-0.46,1.48-0.69,2.23c-0.95,2.97-1.7,6.04-1.8,9.1l-0.27-0.09
							c-0.29,3.93-0.95,7.87-1.59,11.87c-0.62,4-1.25,8.04-1.55,12.06c-0.45,3.32-0.35,5.6-0.67,8.95l-0.36,0.05
							c0.77,5.77-2.43,11.71-1.48,17.75l-0.44-0.45c0.65,0.97-0.53,3.56,0.76,3.29l-0.45,1.02c0.72,2.05,0.48,3.84,0.22,5.78
							c-0.25,1.93-0.52,4.03,0.27,6.43l-0.33-0.29c0.34,1.29,0.76,2.75,0.68,3.75c-0.07-0.14-0.14-0.06-0.28-0.35
							c-0.1,1.06-0.07,2.15,0.13,3.22c0.24,1.06,0.58,2.12,0.96,3.16c0.87,2.06,1.89,4.05,2.82,6.01l-0.71-0.22
							c0.37,0.41,0.71,0.96,1.04,1.58c0.34,0.62,0.7,1.29,1.08,1.98c0.38,0.69,0.72,1.43,1.13,2.1c0.43,0.66,0.86,1.28,1.31,1.82
							l-0.31,0.01l1.08,0.96l-0.41,0.34c0.53,0.73,1.11,1.42,1.68,2.1l0.86,1l0.94,0.92l1.88,1.82
							C57.57,170.82,58.23,171.39,58.88,171.98z"/>
						<path class="st2" d="M91.95,183.42c-0.01,0-0.03,0-0.04-0.01C91.81,183.46,91.86,183.45,91.95,183.42z"/>
						<path class="st2" d="M137.23,152.46c-0.11,0.13-0.2,0.24-0.31,0.34C137.03,152.83,137.14,152.58,137.23,152.46z"/>
					</g>
				</g>
			</g>
		</g>
	</g>
	<g>
		<path class="st3" d="M93.56,138.23c-1.89-3.19-3.81-5.97-6.49-8.56c-4.38-4.23-9.89-7.26-14.42-11.3c0.9,2.19,2.37,4.46,3.23,6.34
			c1.59,3.51,3.32,6.94,5.62,10.04c4.05,5.44,8.89,10.87,16.17,11.24C97.02,143.32,94.92,140.51,93.56,138.23z"/>
		<path class="st3" d="M103.67,104.39c1.75-0.76,3.42-1.77,5.04-2.78c3.87-2.4,6.38-5.6,9.09-9.18c4.44-5.88,6.56-12.77,8.16-19.85
			c-2.5,1.23-5.08,3.22-7.24,4.7c-3.34,2.29-6.39,5.01-9.13,7.99c-5.48,5.95-8.34,12.99-10.78,20.55
			C100.38,105.78,102.57,104.86,103.67,104.39z"/>
		<path class="st3" d="M113.11,153.17c-3.5,1.41-7.11,2.73-10.29,4.8c-3.43,2.23-6.5,5.63-8.86,9.01c1.63,0.89,3.55,0.65,5.33,0.87
			c3.07,0.39,5.13-0.06,7.94-1.41c3.77-1.8,7.42-4.12,10.75-6.62c5.35-4.02,8.53-9.52,12.09-14.91
			C124.77,148.32,119.07,150.77,113.11,153.17z"/>
		<path class="st4" d="M81.07,27.65c0.39-0.44,0.83-0.8,1.32-1.11c-0.05-0.02-0.1-0.04-0.14-0.08c-1.38-1.15-1.98-3.32-3.92-3.51
			c-1.58-0.15-3.42,1.08-4.36,2.29c-1.36,1.75-0.76,3.77-0.02,5.64c0.42,1.05,1.33,3.91,2.86,3.79c0.47-0.04,0.67,0.32,0.64,0.69
			c0.88,0.01,1.81,0.19,2.76,0.51c0.91,0.31,1.79,0.71,2.66,1.14c-0.31-0.37-0.6-0.75-0.88-1.14
			C80.27,33.49,78.84,30.17,81.07,27.65z"/>
		<path class="st4" d="M86.12,25.39c-0.5-2.75-0.73-5.89,0.19-8.32c-0.33-0.22-0.64-0.45-1.01-0.7c-1.08-0.73-2.11-0.54-3.27-0.11
			c-2.51,0.92-3.1,2.95-2.54,5.43c1.65,0.66,2.33,2.57,3.8,3.8c0.17,0.14,0.23,0.3,0.23,0.45C84.34,25.62,85.22,25.43,86.12,25.39z"
			/>
		<path class="st4" d="M92.95,31.74c-1.08-2.09-2.31-3.83-4.63-4.55c-0.2-0.06-0.41-0.11-0.62-0.15c-0.28,0.45-1.08,0.48-1.28-0.13
			c-2.18-0.02-4.37,1.02-4.88,3.29c-0.62,2.77,1.93,5.52,3.75,7.37c1.98,2,3.92,2.77,6.2,3.65c0.07-0.04,0.14-0.08,0.22-0.1
			c1.53-0.51,2.94-0.1,4.43,0.36c0.06,0.02,0.12,0.04,0.18,0.05c-0.21-0.96-0.43-1.96-0.62-2.98
			C94.97,36.21,94.08,33.92,92.95,31.74z"/>
		<path class="st4" d="M86.26,40.37c-0.65-0.31-1.28-0.61-1.86-0.93c-1.62-0.88-3.32-1.92-5.12-2.38c-1.91-0.48-2.87-0.56-4.2,0.9
			c-1.19,1.29-1.45,2.09-1.23,3.82c0.71,5.6,8.52,5.6,12.65,4.87c1.86-0.33,3.68-0.87,5.49-1.43c-0.82-0.6-1.49-1.34-1.7-2.24
			c-0.05-0.21,0.01-0.41,0.12-0.56c-1.43-0.46-2.78-0.95-4.11-2.02C86.28,40.4,86.27,40.38,86.26,40.37z"/>
		<path class="st4" d="M117.47,34.99c-0.05-0.16-0.09-0.32-0.14-0.48c-0.22-0.04-0.44-0.07-0.66-0.08c-2.19-0.14-4.75,1.1-6.57,2.14
			c-0.39,0.23-0.78,0.47-1.16,0.72c-1.55,2.94-3.77,5.59-6.58,7.04c-0.24,0.48-0.46,0.96-0.64,1.47c0,0.03-0.01,0.07-0.01,0.1
			c0.01,0.01,0.02,0.01,0.02,0.01c2.45,2.31,7.8,2.79,10.83,1.96c3.12-0.85,6.34-3.01,8.13-5.73c1.71-2.59,0.75-5.62-1.6-6.99
			c-0.19,0.1-0.38,0.22-0.58,0.3C118.06,35.66,117.61,35.46,117.47,34.99z"/>
		<path class="st4" d="M120.49,34.2c1.64,0.87,2.85,2.32,2.93,4.44c0.04,1.03-0.21,2.02-0.63,2.96c0.02,0.04,0.05,0.06,0.07,0.1
			c-0.1-0.22,1.37-0.56,1.61-0.61c1.23-0.3,2.01-0.4,3.09-1.2c1.3-0.97,2.48-2.2,2.66-3.89c0.48-4.47-3.88-5.65-7.32-4.8
			c-0.01,0-0.03,0-0.04,0C122.25,32.36,121.45,33.39,120.49,34.2z"/>
		<path class="st4" d="M87.57,25.47c1.4,0.19,2.75,0.75,3.8,1.65c1.51,1.29,2.69,3.08,3.65,5.06c0.01-2.63,0.52-5.19,1.94-7.44
			c0.4-0.63,0.91-1.22,1.5-1.77c0.4-1.8-0.88-4.5-1.79-6.07c-1.21-2.09-3.51-2.77-5.77-2.2c-1.33,0.33-2.24,1-2.84,1.87
			c0.19,0.42-0.06,1-0.54,1.03C86.6,19.89,87.06,22.99,87.57,25.47z"/>
		<path class="st4" d="M107.83,36.28c0.43-0.84,0.8-1.7,1.1-2.53c1.42-3.94,2.03-10.89-3.52-12.05c-5.02-1.05-8.33,4.73-8.82,8.74
			c-0.27,2.26-0.06,4.53,0.32,6.78c0.51,1.71,0.92,3.39,1.28,4.9c0.56,0.2,1.12,0.43,1.63,0.75c0.4,0.24,0.82,0.61,1.17,1.04
			C102.49,40.84,104.94,38.22,107.83,36.28z"/>
		<path class="st4" d="M110.95,31.96c-0.24,1-0.57,2.02-0.97,3.04c1.09-0.57,2.22-1.04,3.36-1.4c1.62-0.52,3.72-0.55,5.59-0.01
			c3.05-2.11,4.52-6.75,3.76-10.18c-0.69-3.14-3.52-4.89-6.55-3.54c-2.39,1.06-3.68,2.95-4.97,5.1c-0.07,0.11-0.15,0.19-0.25,0.24
			C111.53,27.44,111.42,30.03,110.95,31.96z"/>
		<path class="st4" d="M107.43,20.68c1.36,0.58,2.29,1.64,2.91,2.91c0.11-0.18,0.23-0.36,0.34-0.54c-0.13-0.25-0.14-0.57,0.11-0.84
			c1.03-1.05,0.18-4.23-0.16-5.46c-0.51-1.84-1.39-3.92-3.48-4.31c-4.62-0.87-7.93,4.86-6.1,8.74
			C103.09,20.18,105.42,19.83,107.43,20.68z"/>
		<polygon class="st4" points="90.4,42.42 90.41,42.42 90.4,42.42 		"/>
		<g>
			<path d="M74.63,187.06c4.94-1.49,9.29-6.1,12.48-10c3.27-3.98,5.97-8.51,7.85-13.31c4.48-11.39,4.61-24.7,4.47-36.77
				c-0.17-13.72-1.7-27.21-2.76-40.87c-0.53-6.86-1.05-13.75-1.26-20.63c-0.21-6.67-0.46-13.61,0.87-20.18
				c0.18-0.89-1.17-1.33-1.36-0.44c-2.33,11.55-0.85,24.01-0.06,35.66c0.86,12.69,2.58,25.31,2.98,38.03
				c0.4,12.62,0.64,25.75-2.19,38.14c-1.29,5.63-3.65,10.93-6.86,15.73c-3.27,4.88-8.61,11.48-14.46,13.24
				C73.45,185.93,73.75,187.32,74.63,187.06L74.63,187.06z"/>
		</g>
		<g>
			<path d="M92.22,42.53c-0.41-0.2-0.61-0.3-1.04-0.43c-0.51-0.15-1.04,0.3-0.91,0.83c0.48,2.04,3.25,3.32,5.05,3.81
				c1.57,0.43,4.13,1.31,5.63,0.24c1.72-1.23,0.19-3.37-1.13-4.18c-1.13-0.69-2.42-1.01-3.67-1.39c-1.49-0.46-2.9-0.87-4.43-0.36
				c-0.28,0.09-0.57,0.33-0.56,0.66c0.04,1.85,1.34,2.58,2.87,3.31c0.98,0.46,2.74,1.5,3.68,0.39c2.07-2.45-5.35-3.33-6.16-3.4
				c-0.51-0.04-0.78,0.43-0.73,0.86c0.28,2.68,6.07,4.43,8.19,3.82c0.29-0.09,0.55-0.33,0.56-0.66c0.01-1.61-1.42-2.38-2.67-3.09
				c-1.52-0.87-3.05-1.6-4.84-1.43c-0.37,0.03-0.63,0.51-0.54,0.85c0.73,2.74,6.01,4.54,8.51,3.78c0.4-0.12,0.58-0.44,0.54-0.85
				c-0.31-3.06-5.76-3.09-3.98-0.25c0.48,0.77,1.75,0.11,1.26-0.67c-0.29-0.35-0.27-0.41,0.07-0.17c0.59,0.26,1.01,0.73,1.26,1.39
				c0.18-0.28,0.36-0.57,0.54-0.85c-1.65,0.5-6.3-0.79-6.81-2.7c-0.18,0.28-0.36,0.57-0.54,0.85c1.11-0.1,5.79,1.41,5.77,3.06
				c0.19-0.22,0.37-0.44,0.56-0.66c-1.4,0.41-6.31-0.96-6.5-2.73c-0.24,0.29-0.49,0.58-0.73,0.86c1.74,0.14,3.15,0.48,4.74,1.11
				c0.49,0.2,0.41,0.11-0.03-0.15c-0.35-0.21-0.84-0.32-1.21-0.5c-0.9-0.42-2.36-0.88-2.39-2.12c-0.19,0.22-0.37,0.44-0.56,0.66
				c1.69-0.56,3.61,0.26,5.25,0.79c0.78,0.26,1.65,0.55,2.27,1.11c0.95,0.86,0.65,1.68-0.61,1.66c-1.15-0.02-2.33-0.38-3.42-0.7
				c-1.14-0.33-3.51-1.33-3.84-2.69c-0.3,0.28-0.61,0.55-0.91,0.83c0.24,0.09,0.47,0.18,0.71,0.27
				C92.27,44.13,93.04,42.93,92.22,42.53L92.22,42.53z"/>
		</g>
		<g>
			<path d="M93.32,41.89c-3.12-1.28-5.55-1.85-8.04-4.37c-1.83-1.85-4.38-4.6-3.75-7.37c0.66-2.94,4.14-3.82,6.77-3.01
				c2.31,0.71,3.55,2.46,4.63,4.55c1.77,3.44,3.01,7.13,3.9,10.89c0.21,0.89,1.6,0.59,1.39-0.31c-1.16-4.9-2.87-11.78-6.87-15.21
				c-2.84-2.43-7.75-2.36-10.3,0.53c-2.23,2.52-0.79,5.84,0.91,8.21c1.21,1.69,2.7,3.25,4.32,4.55c2.09,1.68,4.22,1.91,6.61,2.89
				C93.74,43.59,94.17,42.24,93.32,41.89L93.32,41.89z"/>
		</g>
		<g>
			<path d="M97.9,42.07c-0.84-3.8-1.8-7.76-1.32-11.68c0.49-4.01,3.8-9.79,8.82-8.74c5.55,1.16,4.93,8.11,3.52,12.05
				c-1.28,3.57-3.78,7.56-7.26,9.34c-0.81,0.42-0.15,1.68,0.67,1.26c4.48-2.29,7.48-7.65,8.62-12.39c0.88-3.64,0.53-9.56-3.53-11.28
				c-3.69-1.57-8.48,0.92-10.47,4.05c-3.31,5.21-1.66,12.1-0.43,17.69C96.71,43.27,98.1,42.96,97.9,42.07L97.9,42.07z"/>
		</g>
		<g>
			<path d="M101.68,45.77c1.47-3.98,4.76-7.16,8.4-9.25c1.82-1.05,4.38-2.29,6.57-2.14c3.97,0.26,6.23,4.36,4.01,7.72
				c-1.79,2.72-5,4.88-8.13,5.73c-3.03,0.83-8.39,0.35-10.83-1.96c-0.66-0.63-1.71,0.34-1.05,0.97c3.24,3.06,9.66,3.45,13.62,1.88
				c3.82-1.52,9.29-5.4,9.12-10.13c-0.17-4.89-6.37-6.22-10.07-5.05c-5.64,1.79-10.93,6.19-13,11.8
				C100.01,46.2,101.36,46.63,101.68,45.77L101.68,45.77z"/>
		</g>
		<g>
			<path d="M94.19,43.35c-1.75-1.68-3.99-2.45-6.12-3.55c-2.6-1.35-5.1-3.04-7.89-3.99c-3.62-1.24-7.13-0.35-7.76,3.79
				c-0.7,4.58,2.19,7.42,6.46,8.35c6.23,1.36,11.93-1.24,17.88-2.68c0.89-0.22,0.59-1.61-0.31-1.39c-3.34,0.81-6.59,2.13-9.98,2.72
				c-4.14,0.73-11.95,0.73-12.65-4.87c-0.22-1.74,0.04-2.53,1.23-3.82c1.34-1.46,2.3-1.38,4.2-0.9c1.8,0.46,3.5,1.49,5.12,2.38
				c2.75,1.5,6.5,2.76,8.77,4.93C93.8,44.95,94.85,43.99,94.19,43.35L94.19,43.35z"/>
		</g>
		<g>
			<path d="M87.77,26.49c-0.86-3.93-2.2-10.51,3.1-11.84c2.27-0.57,4.57,0.11,5.77,2.2c0.91,1.57,2.2,4.28,1.79,6.08
				c-0.2,0.89,1.15,1.33,1.36,0.44c0.53-2.34-0.9-5.83-2.23-7.76c-1.37-1.98-3.63-2.8-5.98-2.52c-7.08,0.83-6.34,8.51-5.2,13.71
				C86.58,27.69,87.97,27.38,87.77,26.49L87.77,26.49z"/>
		</g>
		<g>
			<path d="M76.79,34.61c-1.52,0.12-2.44-2.74-2.86-3.79c-0.74-1.86-1.34-3.88,0.02-5.64c0.94-1.21,2.77-2.44,4.36-2.29
				c1.94,0.19,2.54,2.36,3.92,3.51c0.69,0.58,1.75-0.38,1.05-0.97c-1.87-1.56-2.45-4.22-5.35-4.03c-2.07,0.13-4.4,1.65-5.49,3.4
				c-1.19,1.9-0.72,4.11,0.01,6.08c0.67,1.78,1.89,5.33,4.28,5.14C77.61,35.96,77.7,34.54,76.79,34.61L76.79,34.61z"/>
		</g>
		<g>
			<path d="M111.15,24.9c1.29-2.15,2.58-4.04,4.97-5.1c3.03-1.34,5.86,0.41,6.55,3.54c0.85,3.82-1.07,9.15-4.86,10.81
				c0.34,0.16,0.69,0.32,1.03,0.48c-0.05-0.17-0.1-0.34-0.15-0.5c-0.26-0.88-1.65-0.57-1.39,0.31c0.05,0.17,0.1,0.34,0.15,0.5
				c0.14,0.47,0.59,0.67,1.03,0.48c5.22-2.28,7.22-10,4.7-14.79c-1.2-2.27-3.34-3.19-5.87-2.71c-3.58,0.67-5.6,3.31-7.35,6.21
				C109.48,24.92,110.68,25.68,111.15,24.9L111.15,24.9z"/>
		</g>
		<g>
			<path d="M101.04,21.13c-1.84-3.88,1.47-9.61,6.1-8.74c2.09,0.39,2.96,2.47,3.48,4.31c0.34,1.23,1.19,4.41,0.16,5.46
				c-0.64,0.65,0.32,1.7,0.97,1.05c1.69-1.73,0.69-5.65,0-7.68c-0.72-2.12-2.04-4.21-4.43-4.58c-5.78-0.91-9.86,5.94-7.54,10.85
				C100.17,22.63,101.43,21.96,101.04,21.13L101.04,21.13z"/>
		</g>
		<g>
			<path d="M79.47,21.64c-0.55-2.48,0.03-4.51,2.54-5.43c1.16-0.43,2.18-0.61,3.27,0.11c0.66,0.44,1.16,0.89,1.92,1.18
				c0.86,0.33,1.29-1.03,0.44-1.36c-1.25-0.47-2.01-1.65-3.42-1.79c-1.29-0.12-2.77,0.44-3.9,1.04c-2.45,1.3-2.79,4.09-2.24,6.55
				C78.27,22.84,79.66,22.54,79.47,21.64L79.47,21.64z"/>
		</g>
		<g>
			<path d="M122.87,31.15c3.44-0.85,7.8,0.33,7.32,4.8c-0.18,1.69-1.36,2.92-2.66,3.89c-1.07,0.8-1.86,0.9-3.09,1.2
				c-0.23,0.06-1.7,0.39-1.61,0.61c-0.37-0.84-1.63-0.17-1.26,0.67c0.03,0.07,0.06,0.14,0.09,0.21c0.09,0.2,0.36,0.39,0.59,0.38
				c4.18-0.22,9.44-2.7,9.38-7.56c-0.02-2-1.12-4.14-2.87-5.17c-2.03-1.2-4.04-0.95-6.21-0.42
				C121.68,29.98,121.98,31.37,122.87,31.15L122.87,31.15z"/>
		</g>
		<g>
			<path d="M97.71,44.59c1.73-2.2,2.51-5.18,3.31-7.82c0.49-1.61,0.84-3.27,1.19-4.92c0.31-1.47,0.21-2.83,0.17-4.32
				c-0.01-0.46-0.72-0.49-0.71-0.04c0.04,1.66,0.08,3.09-0.28,4.72c-0.32,1.46-0.62,2.91-1.06,4.34c-0.78,2.57-1.56,5.52-3.23,7.66
				C96.82,44.57,97.43,44.95,97.71,44.59L97.71,44.59z"/>
		</g>
		<g>
			<path d="M98.45,44.52c3.27,0.42,5.9,0.08,8.86-1.4c1.59-0.79,3.18-1.57,4.78-2.33c1.39-0.66,2.52-1.7,3.86-2.36
				c0.41-0.2,0.08-0.83-0.33-0.63c-1.16,0.56-2.09,1.48-3.25,2.06c-1.4,0.7-2.84,1.32-4.24,2.03c-1.5,0.77-3,1.61-4.67,1.96
				c-1.65,0.34-3.32,0.17-4.97-0.04C98.03,43.75,98,44.46,98.45,44.52L98.45,44.52z"/>
		</g>
		<g>
			<path d="M87.76,32.61c0.38,1.45,1.72,2.73,2.63,3.88c1.18,1.49,2.43,2.99,3.79,4.32c1.06,1.03,2.27,1.9,3.54,2.63
				c0.62,0.36,1.27,0.69,1.96,0.91c0.16,0.05,1.88,0.3,1.89,0.33c0.18,0.42,0.81,0.09,0.63-0.33c-0.03-0.07-0.06-0.14-0.09-0.21
				c-0.05-0.11-0.18-0.19-0.3-0.19c-2.85-0.01-5.61-2.08-7.53-4.05c-0.96-0.99-1.86-2.05-2.74-3.11c-0.99-1.19-2.71-2.84-3.11-4.35
				C88.33,32.02,87.64,32.17,87.76,32.61L87.76,32.61z"/>
		</g>
		<g>
			<path d="M80.05,43.54c3.44,1.08,6.19,2.58,9.9,2.1c3.82-0.5,7.63-0.74,11.23-2.27c0.42-0.18,0.09-0.81-0.33-0.63
				c-3.37,1.44-6.88,1.6-10.45,2.12c-1.94,0.28-3.71,0.3-5.59-0.32c-1.53-0.5-2.99-1.19-4.53-1.68
				C79.83,42.72,79.61,43.4,80.05,43.54L80.05,43.54z"/>
		</g>
		<g>
			<path d="M97.47,105.83c0.03,0.06,0.07,0.11,0.1,0.17c0.31,0.51,1.11,0.49,1.31-0.11c2.47-7.71,5.34-14.89,10.91-20.95
				c2.74-2.98,5.79-5.7,9.13-7.99c2.55-1.75,5.67-4.21,8.57-5.28c-0.34-0.28-0.67-0.57-1.01-0.85c-1.64,7.58-3.74,15.01-8.47,21.28
				c-2.71,3.59-5.22,6.78-9.09,9.18c-1.62,1.01-3.29,2.02-5.04,2.78c-1.31,0.57-4.18,1.78-5.7,1.35c-0.88-0.25-1.32,1.1-0.44,1.36
				c2.8,0.8,6.7-1.32,9.08-2.61c3.82-2.08,7.05-4.43,9.78-7.85c6.09-7.62,9.18-15.55,11.24-25.06c0.14-0.65-0.42-1.07-1.01-0.85
				c-3.22,1.19-6.73,3.95-9.53,5.96c-3.4,2.43-6.5,5.27-9.26,8.4c-5.32,6.04-8.09,13.13-10.51,20.68c0.44-0.04,0.87-0.08,1.31-0.11
				c-0.03-0.06-0.07-0.11-0.1-0.17C98.26,104.38,97,105.04,97.47,105.83L97.47,105.83z"/>
		</g>
		<g>
			<path d="M99.76,105.83c3.57-1.88,5.85-5.08,8.73-7.8c2.74-2.58,6.14-4.88,8.42-7.9c2.01-2.65,3.62-5.88,5.14-8.84
				c0.75-1.47,1.15-3.05,1.75-4.56c0.86-2.17,2.59-4.03,3.89-5.95c0.51-0.76-0.69-1.53-1.2-0.77c-1.79,2.65-3.45,4.82-4.52,7.83
				c-1.23,3.47-3.34,6.81-5.28,9.93c-1.97,3.17-5.12,5.59-7.9,8.04c-3.27,2.88-5.8,6.68-9.71,8.74
				C98.29,105,98.95,106.26,99.76,105.83L99.76,105.83z"/>
		</g>
		<g>
			<path d="M98.27,145.68c-7.5-0.19-12.44-5.72-16.56-11.26c-2.31-3.1-4.03-6.54-5.62-10.04c-1.19-2.62-3.59-5.99-3.96-8.85
				c-0.41,0.21-0.81,0.42-1.22,0.64c4.82,5.04,11.33,8.32,16.36,13.17c2.68,2.59,4.6,5.37,6.49,8.56c1.44,2.43,3.74,5.46,4.24,8.27
				c0.16,0.9,1.55,0.59,1.39-0.31c-0.44-2.54-2.19-5.04-3.51-7.25c-1.83-3.07-3.45-5.96-5.91-8.56
				c-5.38-5.68-12.66-9.24-18.01-14.85c-0.52-0.54-1.3-0.04-1.22,0.64c0.41,3.2,3.02,6.87,4.36,9.8c1.76,3.85,3.79,7.43,6.38,10.78
				c4.22,5.47,9.31,10.5,16.72,10.69C99.11,147.12,99.18,145.7,98.27,145.68L98.27,145.68z"/>
		</g>
		<g>
			<path d="M99.33,145.44c-2.76,0.17-6.81-3.88-8.61-5.57c-1.85-1.74-3.69-3.51-5.36-5.41c-3.8-4.31-8.49-8.78-11.33-13.82
				c-0.45-0.8-1.71-0.14-1.26,0.67c1.57,2.79,3.94,5.25,6.01,7.67c2.33,2.72,4.49,5.6,7.02,8.12c2.12,2.12,4.28,4.23,6.65,6.06
				c1.78,1.38,4.37,3.86,6.8,3.7C100.16,146.81,100.24,145.39,99.33,145.44L99.33,145.44z"/>
		</g>
		<g>
			<path d="M93.65,167.4c2.42-3.62,5.7-7.38,9.39-9.77c3.18-2.07,6.79-3.39,10.29-4.8c7.18-2.89,13.98-5.83,20.18-10.47
				c-0.36-0.3-0.72-0.6-1.08-0.91c-4.54,6.32-7.83,13.22-14.22,18.02c-3.33,2.51-6.99,4.82-10.75,6.62
				c-2.82,1.35-4.87,1.8-7.94,1.41c-1.83-0.23-3.82,0.05-5.48-0.95c-0.79-0.47-1.55,0.73-0.77,1.2c1.52,0.91,2.81,0.89,4.56,1.02
				c1.8,0.13,3.37,0.7,5.2,0.44c4.67-0.66,9.38-4.06,13.2-6.61c3.61-2.4,6.96-5.13,9.59-8.6c2.87-3.77,5.05-7.94,7.81-11.79
				c0.51-0.7-0.48-1.36-1.08-0.91c-7.07,5.29-15.1,8.25-23.21,11.6c-7.06,2.92-12.61,7.33-16.87,13.72
				C91.93,167.4,93.14,168.17,93.65,167.4L93.65,167.4z"/>
		</g>
		<g>
			<path d="M93.29,166.86c7.19-2.13,14.87-4.63,21.46-8.27c5.9-3.25,11.05-8.38,16.37-12.44c0.73-0.55-0.24-1.6-0.97-1.05
				c-5.23,3.98-10.31,9.01-16.07,12.23c-6.46,3.61-14.04,6.04-21.1,8.13C92.11,165.73,92.41,167.12,93.29,166.86L93.29,166.86z"/>
		</g>
	</g>
</g>
</svg>
