<?xml version="1.0" ?><svg xmlns="http://www.w3.org/2000/svg" xmlns:xlink="http://www.w3.org/1999/xlink" version="1.1" viewBox="0 0 512 512" style="enable-background:new 0 0 512 512;" xml:space="preserve"><g id="_x30_3_x2C__Mandala_x2C__Flower_x2C__Cultures_x2C__Wellness_x2C__Meditation_x2C__Spiritual_x2C__Floral_Design_x2C__Ornamental"><g><circle style="fill:#FFFFFF;" cx="256" cy="256" r="250"/><circle style="fill:#FFFFFF;" cx="256" cy="256" r="160.158"/><circle id="XMLID_1941_" style="fill:#FFFFFF;" cx="256" cy="256" r="105"/><circle id="XMLID_1942_" style="fill:#95E8FD;stroke:#272325;stroke-miterlimit:10;" cx="256" cy="256" r="80.65"/><path id="XMLID_1943_" style="fill:#FFFFFF;" d="M192.95,205.72c-0.02,0.01-0.02,0.01-0.02,0.02c-0.27,14.86,6.28,29.9,18.99,40.2    l24.43-30.66C223.48,205.18,207.37,202.16,192.95,205.72z"/><path id="XMLID_1944_" style="fill:#FFFFFF;" d="M211.91,245.98c-15.92,3.77-28.34,14.47-34.55,27.97c0,0.02,0,0.04,0.01,0.05    c11.46,9.47,27.3,13.73,43.29,10.2L211.91,245.98z"/><path id="XMLID_1945_" style="fill:#FFFFFF;" d="M220.67,284.21c-6.99,14.79-6.38,31.18,0.31,44.46c0.02,0.01,0.04,0.02,0.06,0.03    c14.54-3.05,27.75-12.78,34.96-27.49L220.67,284.21z"/><path id="XMLID_1946_" style="fill:#FFFFFF;" d="M291.33,284.21l-35.33,17c7.21,14.71,20.42,24.44,34.96,27.49    c0.02-0.01,0.04-0.02,0.06-0.03C297.71,315.39,298.32,299,291.33,284.21z"/><path id="XMLID_1947_" style="fill:#FFFFFF;" d="M300.09,245.98l-8.75,38.22c15.99,3.53,31.83-0.73,43.29-10.2    c0.01-0.01,0.01-0.03,0.01-0.05C328.43,260.45,316.01,249.75,300.09,245.98z"/><path id="XMLID_1948_" style="fill:#FFFFFF;" d="M319.05,205.72c-14.42-3.56-30.53-0.54-43.4,9.56l24.43,30.66    c12.71-10.3,19.26-25.34,18.99-40.2C319.07,205.73,319.07,205.73,319.05,205.72z"/><path id="XMLID_1949_" style="fill:#FFFFFF;" d="M256,175.35c-11.79,9.05-19.46,23.54-19.61,39.9h39.22    C275.46,198.89,267.79,184.4,256,175.35z"/><path id="XMLID_1950_" style="fill:#FFFFFF;" d="M300.09,245.98c-0.01,0-0.03-0.01-0.04-0.01c0.01-0.01,0.02-0.02,0.03-0.03    c-3.07-13.54-12.22-24.77-24.43-30.66c-0.01-0.01-0.03-0.02-0.04-0.03c-12.347-5.955-26.895-5.944-39.22,0    c-0.01,0.01-0.03,0.02-0.04,0.03c-12.21,5.89-21.36,17.12-24.43,30.66c0.01,0.01,0.02,0.02,0.03,0.03c-0.01,0-0.03,0.01-0.04,0.01    c-3.007,13.265,0.059,27.349,8.75,38.22h0.01c-0.01,0.01,0,0.01,0,0.01c18.114,22.665,52.543,22.668,70.66,0c0,0,0.01,0,0-0.01    h0.01C300.04,273.318,303.094,259.232,300.09,245.98z"/><circle id="XMLID_1951_" style="fill:#FFFFFF;" cx="256" cy="256" r="20.5"/><g id="XMLID_1952_"><path id="XMLID_1964_" style="fill:#95E8FD;stroke:#272325;stroke-miterlimit:10;" d="M228.92,50.33     c-8.95-15.88-22.24-28.28-37.62-35.81c-16.234,24.148-14.508,48.565-14.69,49.83l24.72,46.57c9.43-3.56,19.29-6.22,29.49-7.88     L228.92,50.33z"/><path id="XMLID_1963_" style="fill:#95E8FD;stroke:#272325;stroke-miterlimit:10;" d="M129.71,91.42     c-15.7-9.27-33.4-13.36-50.49-12.2c-1.16,17.09,2.93,34.79,12.2,50.49l44.72,28.02c6.47-7.89,13.7-15.12,21.59-21.59     L129.71,91.42z"/><path id="XMLID_1962_" style="fill:#95E8FD;stroke:#272325;stroke-miterlimit:10;" d="M64.35,176.61     c-1.225,0.176-25.723-1.517-49.83,14.69c7.53,15.38,19.93,28.67,35.81,37.62l52.71,1.9c1.66-10.2,4.32-20.06,7.88-29.49     L64.35,176.61z"/><path id="XMLID_1961_" style="fill:#95E8FD;stroke:#272325;stroke-miterlimit:10;" d="M103.04,281.18l-52.71,1.9     c-15.88,8.95-28.28,22.24-35.81,37.62c24.148,16.234,48.565,14.508,49.83,14.69l46.57-24.72     C107.36,301.24,104.7,291.38,103.04,281.18z"/><path id="XMLID_1960_" style="fill:#95E8FD;stroke:#272325;stroke-miterlimit:10;" d="M136.14,354.27l-44.72,28.02     c-9.27,15.7-13.36,33.4-12.2,50.49c17.09,1.16,34.79-2.93,50.49-12.2l28.02-44.72C149.84,369.39,142.61,362.16,136.14,354.27z"/><path id="XMLID_1959_" style="fill:#95E8FD;stroke:#272325;stroke-miterlimit:10;" d="M201.33,401.08l-24.72,46.58     c-0.18,18.23,5.13,35.6,14.69,49.82c15.38-7.53,28.67-19.93,37.62-35.81l1.9-52.71C220.62,407.3,210.76,404.64,201.33,401.08z"/><path id="XMLID_1958_" style="fill:#95E8FD;stroke:#272325;stroke-miterlimit:10;" d="M310.67,401.08     c-9.43,3.56-19.29,6.22-29.49,7.88l1.9,52.71c8.95,15.88,22.24,28.28,37.62,35.81c16.234-24.148,14.508-48.565,14.69-49.83     L310.67,401.08z"/><path id="XMLID_1957_" style="fill:#95E8FD;stroke:#272325;stroke-miterlimit:10;" d="M420.58,382.29l-44.72-28.02     c-6.47,7.89-13.7,15.12-21.59,21.59l28.02,44.72c15.7,9.27,33.4,13.36,50.49,12.2C433.94,415.69,429.85,397.99,420.58,382.29z"/><path id="XMLID_1956_" style="fill:#95E8FD;stroke:#272325;stroke-miterlimit:10;" d="M461.67,283.08l-52.71-1.9     c-1.66,10.2-4.32,20.06-7.88,29.49l46.58,24.72c18.23,0.18,35.6-5.13,49.82-14.69C489.95,305.32,477.55,292.03,461.67,283.08z"/><path id="XMLID_1955_" style="fill:#95E8FD;stroke:#272325;stroke-miterlimit:10;" d="M447.65,176.61l-46.57,24.72     c3.56,9.43,6.22,19.29,7.88,29.49l52.71-1.9c15.88-8.95,28.28-22.24,35.81-37.62C473.332,175.066,448.915,176.792,447.65,176.61z     "/><path id="XMLID_1954_" style="fill:#95E8FD;stroke:#272325;stroke-miterlimit:10;" d="M432.78,79.22     c-17.09-1.16-34.79,2.93-50.49,12.2l-28.02,44.72c7.89,6.47,15.12,13.7,21.59,21.59l44.72-28.02     C429.85,114.01,433.94,96.31,432.78,79.22z"/><path id="XMLID_1953_" style="fill:#95E8FD;stroke:#272325;stroke-miterlimit:10;" d="M320.7,14.52     c-15.38,7.53-28.67,19.93-37.62,35.81l-1.9,52.71c10.2,1.66,20.06,4.32,29.49,7.88l24.72-46.58     C335.57,46.11,330.26,28.74,320.7,14.52z"/></g><path id="XMLID_1965_" style="fill:#FFFFFF;" d="M188.4,79.13l-51.77,29.89c4.852,9.56,12.087,19.215,21.1,27.12    c13.151-10.818,27.978-19.339,43.6-25.22C199.136,99.963,194.91,89.301,188.4,79.13z"/><path id="XMLID_1966_" style="fill:#FFFFFF;" d="M109.02,136.63L79.13,188.4c10.172,6.51,20.834,10.737,31.79,12.93    c5.956-15.805,14.507-30.574,25.22-43.6C128.246,148.729,118.607,141.496,109.02,136.63z"/><path id="XMLID_1967_" style="fill:#FFFFFF;" d="M103.04,230.82c-10.498-3.564-21.993-5.278-34.01-4.71v59.78    c12.018,0.568,23.513-1.146,34.01-4.71C100.313,264.513,100.327,247.324,103.04,230.82z"/><path id="XMLID_1968_" style="fill:#FFFFFF;" d="M110.92,310.67c-10.957,2.194-21.619,6.421-31.79,12.93l29.89,51.77    c9.56-4.852,19.215-12.087,27.12-21.1C125.196,340.954,116.764,326.169,110.92,310.67z"/><path id="XMLID_1969_" style="fill:#FFFFFF;" d="M157.73,375.86c-8.769,7.691-15.922,17.039-21.11,27.11l0.01,0.01l51.76,29.88    c5.664-8.566,10.554-19.861,12.94-31.78C186.135,395.363,171.23,386.957,157.73,375.86z"/><path id="XMLID_1970_" style="fill:#FFFFFF;" d="M281.18,408.96c-16.634,2.721-33.738,2.72-50.36,0    c-3.564,10.498-5.279,21.993-4.71,34.01h59.78C286.458,430.952,284.744,419.457,281.18,408.96z"/><path id="XMLID_1971_" style="fill:#FFFFFF;" d="M354.27,375.86c-13.5,11.097-28.406,19.503-43.6,25.22    c1.91,9.54,5.41,19,10.6,27.97c0.75,1.3,1.52,2.57,2.34,3.81l51.76-29.88l0.01-0.01    C370.185,392.887,363.029,383.542,354.27,375.86z"/><path id="XMLID_1972_" style="fill:#FFFFFF;" d="M401.08,310.67c-6.082,16.128-14.703,30.804-25.22,43.6    c7.894,9.001,17.533,16.234,27.12,21.1l29.89-51.77C422.698,317.09,410.62,312.58,401.08,310.67z"/><path id="XMLID_1973_" style="fill:#FFFFFF;" d="M408.96,230.82c2.718,16.532,2.722,33.722,0,50.36    c10.498,3.564,21.993,5.278,34.01,4.71v-59.78C430.952,225.542,419.457,227.256,408.96,230.82z"/><path id="XMLID_1974_" style="fill:#FFFFFF;" d="M402.98,136.63c-9.56,4.852-19.215,12.087-27.12,21.1    c10.729,13.045,19.272,27.818,25.22,43.6c10.957-2.194,21.619-6.421,31.79-12.93L402.98,136.63z"/><path id="XMLID_1975_" style="fill:#FFFFFF;" d="M323.6,79.13c-6.51,10.172-10.737,20.834-12.93,31.79    c15.623,5.881,30.45,14.402,43.6,25.22c9.001-7.894,16.234-17.533,21.1-27.12L323.6,79.13z"/><path id="XMLID_1976_" style="fill:#FFFFFF;" d="M285.89,69.03h-59.78c-0.568,12.018,1.146,23.512,4.71,34.01    c16.634-2.722,33.738-2.72,50.36,0C284.744,92.542,286.458,81.047,285.89,69.03z"/><path id="XMLID_1977_" style="fill:#FFFFFF;" d="M282.43,47.97h-52.86c-1.605,5.217-3.091,13.114-3.46,21.06    c18.798,9.305,41.01,9.291,59.78,0C285.525,61.189,284.06,53.267,282.43,47.97z"/><path id="XMLID_1978_" style="fill:#FFFFFF;" d="M382.9,89.06l-45.77-26.43h-0.01c-0.59,0.55-1.17,1.13-1.73,1.71    c-4.35,4.42-8.31,9.36-11.79,14.79c11.598,17.428,30.827,28.554,51.77,29.89c3.51-6.772,6.093-13.945,7.54-19.96H382.9z"/><path id="XMLID_1979_" style="fill:#FFFFFF;" d="M422.94,129.1v-0.01c-6.034,1.451-13.223,4.048-19.96,7.54    c1.338,20.975,12.488,40.19,29.89,51.77c5.42-3.48,10.36-7.44,14.78-11.79h0.01c0.58-0.56,1.16-1.14,1.72-1.73    C411.993,110.145,426.336,134.98,422.94,129.1z"/><path id="XMLID_1980_" style="fill:#FFFFFF;" d="M461.67,228.92c-5.99-1.55-12.25-2.51-18.7-2.81    c-9.305,18.798-9.291,41.01,0,59.78c6.45-0.3,12.71-1.26,18.7-2.81c0.79-0.2,1.58-0.41,2.36-0.65v-52.86    C463.25,229.33,462.46,229.12,461.67,228.92z"/><path id="XMLID_1981_" style="fill:#FFFFFF;" d="M432.87,323.6c-17.428,11.598-28.554,30.827-29.89,51.77    c6.771,3.51,13.945,6.093,19.96,7.54v-0.01c3.391-5.872-10.939,18.941,26.44-45.78C445.092,332.602,439.239,327.682,432.87,323.6z    "/><path id="XMLID_1982_" style="fill:#FFFFFF;" d="M226.11,442.97c0.37,7.946,1.855,15.843,3.46,21.06h52.86    c1.63-5.297,3.095-13.219,3.46-21.06C267.092,433.665,244.88,433.679,226.11,442.97z"/><path id="XMLID_1983_" style="fill:#FFFFFF;" d="M136.63,402.98l-0.01-0.01c-3.498,6.772-6.084,13.96-7.53,19.97h0.01    c5.872,3.391-18.941-10.939,45.78,26.44c4.928-4.761,9.554-10.329,13.51-16.52C176.769,415.397,157.521,404.313,136.63,402.98z"/><path id="XMLID_1984_" style="fill:#FFFFFF;" d="M109.02,375.37c-1.338-20.975-12.488-40.19-29.89-51.77    c-6.372,4.091-12.266,9.049-16.51,13.52c37.379,64.721,23.049,39.909,26.44,45.78v0.01    C95.094,381.459,102.283,378.862,109.02,375.37z"/><path id="XMLID_1985_" style="fill:#FFFFFF;" d="M174.88,62.63h-0.01L129.1,89.06h-0.01c1.451,6.034,4.048,13.223,7.54,19.96    c20.975-1.338,40.19-12.488,51.77-29.89C184.137,72.491,178.805,66.289,174.88,62.63z"/><path id="XMLID_1986_" style="fill:#FFFFFF;" d="M89.06,129.09l-26.43,45.78v0.01c0.55,0.59,1.13,1.17,1.71,1.73h0.01    c4.42,4.35,9.36,8.31,14.78,11.79c17.428-11.598,28.554-30.827,29.89-51.77C102.248,133.12,95.075,130.537,89.06,129.09z"/><path id="XMLID_1987_" style="fill:#FFFFFF;" d="M69.03,226.11c-6.45,0.3-12.71,1.26-18.7,2.81c-0.79,0.2-1.58,0.41-2.36,0.65    v52.86c0.78,0.24,1.57,0.45,2.36,0.65c5.99,1.55,12.25,2.51,18.7,2.81C78.335,267.092,78.321,244.88,69.03,226.11z"/><g id="XMLID_1988_"><g id="XMLID_2011_"><circle id="XMLID_2012_" style="fill:#FFFFFF;" cx="255.542" cy="126.458" r="25"/></g><g id="XMLID_2009_"><circle id="XMLID_2010_" style="fill:#FFFFFF;" cx="190.708" cy="143.831" r="25"/></g><g id="XMLID_2007_"><circle id="XMLID_2008_" style="fill:#FFFFFF;" cx="143.247" cy="191.292" r="25"/></g><g id="XMLID_2005_"><circle id="XMLID_2006_" style="fill:#FFFFFF;" cx="125.872" cy="256.128" r="25"/></g><g id="XMLID_2003_"><circle id="XMLID_2004_" style="fill:#FFFFFF;" cx="142.872" cy="321.25" r="25"/></g><g id="XMLID_2001_"><circle id="XMLID_2002_" style="fill:#FFFFFF;" cx="190.708" cy="368.421" r="25"/></g><g id="XMLID_1999_"><circle id="XMLID_2000_" style="fill:#FFFFFF;" cx="255.542" cy="385.858" r="25"/></g><g id="XMLID_1997_"><circle id="XMLID_1998_" style="fill:#FFFFFF;" cx="320.376" cy="368.421" r="25"/></g><g id="XMLID_1995_"><circle id="XMLID_1996_" style="fill:#FFFFFF;" cx="367.836" cy="321.077" r="25"/></g><g id="XMLID_1993_"><circle id="XMLID_1994_" style="fill:#FFFFFF;" cx="385.212" cy="256.126" r="25"/></g><g id="XMLID_1991_"><circle id="XMLID_1992_" style="fill:#FFFFFF;" cx="367.836" cy="191.292" r="25"/></g><g id="XMLID_1989_"><circle id="XMLID_1990_" style="fill:#FFFFFF;" cx="320.376" cy="143.831" r="25"/></g></g><path id="XMLID_2013_" style="fill:#FFFFFF;" d="M274.48,28.87h-36.96c-3.34,5.94-6.02,12.35-7.95,19.1    c15.975,10.713,36.887,10.712,52.86,0C280.5,41.22,277.82,34.81,274.48,28.87z"/><path id="XMLID_2014_" style="fill:#FFFFFF;" d="M274.48,28.87c-10.48,9.514-26.489,9.505-36.96,0C242.39,20.14,248.67,12.4,256,6    C263.33,12.4,269.61,20.14,274.48,28.87z"/><path id="XMLID_2016_" style="fill:#FFFFFF;" d="M158.45,50.05c-35.656,20.59-31.718,18.316-32.02,18.49h-0.01    c0.09,6.81,0.96,13.7,2.67,20.52h0.01c19.149,1.286,37.296-9.165,45.77-26.43h0.01v-0.01C169.83,57.73,164.3,53.53,158.45,50.05z"/><path id="XMLID_2017_" style="fill:#FFFFFF;" d="M158.45,50.05l-0.01,0.01c-4.308,13.459-18.197,21.483-32.01,18.48h-0.01    c-0.14-10.01,1.43-19.84,4.58-29.05C140.55,41.37,149.85,44.93,158.45,50.05z"/><path id="XMLID_2018_" style="fill:#FFFFFF;" d="M89.06,129.1v-0.01c-6.82-1.71-13.71-2.58-20.52-2.67l-18.48,32.02l-0.01,0.01    c3.48,5.85,7.68,11.38,12.57,16.43h0.01v-0.01C79.928,166.38,90.344,148.214,89.06,129.1z"/><path id="XMLID_2019_" style="fill:#FFFFFF;" d="M68.54,126.43c3,13.799-5.007,27.698-18.48,32.01l-0.01,0.01    c-5.12-8.6-8.68-17.9-10.56-27.45c9.21-3.15,19.04-4.72,29.05-4.58V126.43z"/><path id="XMLID_2020_" style="fill:#FFFFFF;" d="M47.97,229.57c-6.75,1.93-13.16,4.61-19.1,7.95v36.96    c5.94,3.34,12.35,6.02,19.1,7.95C58.683,266.455,58.682,245.543,47.97,229.57z"/><path id="XMLID_2021_" style="fill:#FFFFFF;" d="M28.87,237.52c9.514,10.48,9.505,26.489,0,36.96C20.14,269.61,12.4,263.33,6,256    C12.4,248.67,20.14,242.39,28.87,237.52z"/><path id="XMLID_2022_" style="fill:#FFFFFF;" d="M62.63,337.13l-0.01-0.01c-4.89,5.05-9.09,10.58-12.57,16.43l0.01,0.01    l18.48,32.01v0.01c6.81-0.09,13.7-0.96,20.52-2.67v-0.01C90.346,363.75,79.896,345.604,62.63,337.13z"/><path id="XMLID_2023_" style="fill:#FFFFFF;" d="M68.54,385.57v0.01c-10.01,0.14-19.84-1.43-29.05-4.58    c1.88-9.55,5.44-18.85,10.56-27.45l0.01,0.01C63.519,357.868,71.543,371.757,68.54,385.57z"/><path id="XMLID_2024_" style="fill:#FFFFFF;" d="M174.87,449.37c-8.49-17.298-26.656-27.714-45.77-26.43h-0.01    c-1.7,6.81-2.58,13.7-2.67,20.52h0.01l32.01,18.48l0.01,0.01c5.86-3.49,11.38-7.7,16.43-12.57L174.87,449.37z"/><path id="XMLID_2025_" style="fill:#FFFFFF;" d="M158.44,461.94l0.01,0.01c-8.59,5.12-17.89,8.68-27.45,10.56    c-3.15-9.21-4.72-19.05-4.58-29.05h0.01C140.229,440.46,154.128,448.467,158.44,461.94z"/><path id="XMLID_2026_" style="fill:#FFFFFF;" d="M229.57,464.03c1.88,6.6,4.49,12.87,7.72,18.7h37.42    c3.23-5.83,5.84-12.1,7.72-18.7C266.455,453.317,245.543,453.318,229.57,464.03z"/><path id="XMLID_2027_" style="fill:#FFFFFF;" d="M274.71,482.73c-4.91,8.9-11.26,16.78-18.71,23.27    c-7.45-6.49-13.8-14.37-18.71-23.27C248.031,473.526,263.967,473.525,274.71,482.73z"/><path id="XMLID_2028_" style="fill:#FFFFFF;" d="M375.38,402.97l-0.01,0.01c-20.934,1.336-40.162,12.451-51.76,29.88    c3.997,6.242,8.598,11.775,13.51,16.52l0.01-0.01l45.77-26.43h0.01C381.455,416.891,378.848,409.683,375.38,402.97z"/><path id="XMLID_2029_" style="fill:#FFFFFF;" d="M382.91,422.94h-0.01c-19.149-1.286-37.296,9.165-45.77,26.43l-0.01,0.01    c5.05,4.87,10.57,9.08,16.43,12.57c35.657-20.59,31.718-18.316,32.02-18.49h0.01C385.49,436.64,384.61,429.75,382.91,422.94z"/><path id="XMLID_2030_" style="fill:#FFFFFF;" d="M385.58,443.46c0.14,10-1.43,19.84-4.58,29.05c-9.56-1.88-18.86-5.44-27.45-10.56    l0.01-0.01c4.308-13.459,18.197-21.483,32.01-18.48H385.58z"/><path id="XMLID_2031_" style="fill:#FFFFFF;" d="M449.38,337.12l-0.01,0.01c-17.298,8.49-27.714,26.656-26.43,45.77v0.01    c6.82,1.71,13.71,2.58,20.52,2.67v-0.01l18.48-32.01l0.01-0.01C458.47,347.7,454.27,342.17,449.38,337.12z"/><path id="XMLID_2032_" style="fill:#FFFFFF;" d="M461.95,353.55c5.12,8.6,8.68,17.9,10.56,27.45c-9.21,3.15-19.04,4.72-29.05,4.58    v-0.01c-3-13.799,5.007-27.698,18.48-32.01L461.95,353.55z"/><path id="XMLID_2033_" style="fill:#FFFFFF;" d="M464.03,229.57c-10.713,15.975-10.712,36.887,0,52.86    c6.75-1.93,13.16-4.61,19.1-7.95v-36.96C477.19,234.18,470.78,231.5,464.03,229.57z"/><path id="XMLID_2034_" style="fill:#FFFFFF;" d="M483.13,237.52c8.73,4.87,16.47,11.15,22.87,18.48    c-6.4,7.33-14.14,13.61-22.87,18.48C473.616,264,473.625,247.991,483.13,237.52z"/><path id="XMLID_2035_" style="fill:#FFFFFF;" d="M461.94,158.44l-18.48-32.01v-0.01c-6.81,0.09-13.7,0.96-20.52,2.67    c0.063,0.843-1.605,13.269,6.27,26.91c4.89,8.47,11.99,14.86,20.16,18.87l0.01,0.01c4.89-5.05,9.09-10.58,12.57-16.43    L461.94,158.44z"/><path id="XMLID_2036_" style="fill:#FFFFFF;" d="M472.51,131c-1.88,9.55-5.44,18.85-10.56,27.45l-0.01-0.01    c-6.28-2.01-11.85-6.27-15.41-12.44c-5.78-10.018-3.076-19.407-3.07-19.58C453.47,126.28,463.3,127.85,472.51,131z"/><path id="XMLID_2037_" style="fill:#FFFFFF;" d="M353.55,50.05c-5.85,3.48-11.38,7.68-16.43,12.57v0.01h0.01    c8.49,17.298,26.656,27.714,45.77,26.43h0.01c1.71-6.82,2.58-13.71,2.67-20.52C385.278,68.366,389.218,70.64,353.55,50.05z"/><path id="XMLID_2038_" style="fill:#FFFFFF;" d="M381,39.49c3.15,9.21,4.72,19.04,4.58,29.05h-0.01    c-13.799,3-27.698-5.007-32.01-18.48l-0.01-0.01C362.15,44.93,371.45,41.37,381,39.49z"/><g><g><circle style="fill:#284887;" cx="256" cy="126" r="5"/><circle style="fill:#284887;" cx="320.83" cy="143.364" r="5"/><circle style="fill:#284887;" cx="368.295" cy="190.826" r="5"/><circle style="fill:#284887;" cx="368.286" cy="320.5" r="5"/><circle style="fill:#284887;" cx="320.824" cy="367.981" r="5"/><circle style="fill:#284887;" cx="191.17" cy="367.981" r="5"/><circle style="fill:#284887;" cx="143.71" cy="320.509" r="5"/><circle style="fill:#284887;" cx="126.333" cy="255.667" r="5"/><circle style="fill:#284887;" cx="143.705" cy="190.83" r="5"/><circle style="fill:#284887;" cx="191.167" cy="143.37" r="5"/><path style="fill:#284887;" d="M341.65,256c0-46.983-38.235-85.65-85.65-85.65c-47.36,0-85.65,38.608-85.65,85.65      c0,46.991,38.275,85.65,85.65,85.65C303.173,341.65,341.65,303.197,341.65,256z M331.555,259.763      c-5.817-7.008-13.318-12.493-21.944-15.975c6.261-6.881,10.64-15.077,12.84-23.915      C328.934,231.75,332.26,245.414,331.555,259.763z M288.172,322.83c-9.645-2.922-17.962-8.997-23.829-17.323      c9.562-1.607,18.216-5.918,25.141-12.128C292.342,303.163,291.904,313.461,288.172,322.83z M256,296.213      c-22.174,0-40.213-18.039-40.213-40.213c0-22.189,18.096-40.213,40.213-40.213c22.38,0,40.213,18.297,40.213,40.213      C296.213,278.174,278.174,296.213,256,296.213z M222.516,293.379c6.925,6.21,15.579,10.521,25.141,12.128      c-5.867,8.326-14.183,14.401-23.829,17.323C220.096,313.461,219.658,303.163,222.516,293.379z M212.11,280.356      c-10.166,0.603-20.102-2.113-28.401-7.832c4.99-8.744,12.753-15.495,22.164-19.364      C205.329,262.866,207.561,272.189,212.11,280.356z M209.59,236.851c-6.798-7.568-10.861-17.017-11.563-27.059      c9.953-1.549,20.074,0.311,28.966,5.258C219.32,220.502,213.237,228.046,209.59,236.851z M269.158,181.519      c13.964,2.46,26.615,8.755,36.827,17.767c-9.089,0.186-18.038,2.63-26.127,7.196      C278.382,197.291,274.701,188.753,269.158,181.519z M269.944,207.771c-8.865-2.567-18.479-2.725-27.888,0      c1.681-10.027,6.534-19.091,13.944-25.897C263.41,188.681,268.263,197.744,269.944,207.771z M232.141,206.482      c-8.088-4.566-17.036-7.01-26.126-7.197c10.212-9.011,22.863-15.306,36.826-17.766      C237.299,188.753,233.618,197.291,232.141,206.482z M285.006,215.051c8.893-4.949,19.014-6.811,28.967-5.258      c-0.701,10.042-4.765,19.49-11.563,27.058C298.763,228.045,292.679,220.502,285.006,215.051z M306.127,253.159      c9.411,3.869,17.174,10.62,22.164,19.364c-8.299,5.72-18.235,8.437-28.402,7.833      C304.437,272.195,306.672,262.872,306.127,253.159z M189.55,219.873c2.2,8.838,6.579,17.034,12.84,23.915      c-8.627,3.483-16.127,8.967-21.945,15.975C179.771,246.05,182.762,232.309,189.55,219.873z M186.319,285.451      c8.061,3.693,17.133,5.486,26.688,4.863c-2.646,8.885-3.04,18.134-1.21,27.022C200.645,309.276,191.757,298.27,186.319,285.451z       M235.587,328.829c8.108-4.112,15.108-10.196,20.413-17.818c5.305,7.622,12.305,13.706,20.413,17.818      C263.332,332.501,249.306,332.68,235.587,328.829z M300.203,317.335c1.831-8.888,1.436-18.137-1.21-27.022      c9.542,0.622,18.618-1.166,26.689-4.864C320.244,298.269,311.355,309.276,300.203,317.335z"/><circle style="fill:#284887;" cx="385.667" cy="255.667" r="5"/><circle style="fill:#284887;" cx="256" cy="385.333" r="5"/><path style="fill:#284887;" d="M256,230.5c-14.061,0-25.5,11.439-25.5,25.5c0,14.06,11.439,25.5,25.5,25.5      c14.06,0,25.5-11.44,25.5-25.5C281.5,241.939,270.06,230.5,256,230.5z M256,271.5c-8.547,0-15.5-6.953-15.5-15.5      s6.953-15.5,15.5-15.5s15.5,6.953,15.5,15.5S264.547,271.5,256,271.5z"/><path style="fill:#284887;" d="M256,1C115.202,1,1.002,115.042,1,255.997c0,0.002,0,0.004,0,0.006      C1.002,396.806,115.048,511,256,511c140.802,0,254.998-114.045,255-254.997c0-0.002,0-0.004,0-0.006      C510.998,115.199,396.955,1,256,1z M475.645,272.744c-3.034,1.436-6.172,2.673-9.378,3.746c-6.983-12.655-7.066-28.173,0-40.98      c3.207,1.073,6.344,2.31,9.378,3.746C469.452,249.548,469.449,262.447,475.645,272.744z M460.893,223.581      c-15.497-3.633-32.146-3.496-48.029,0.839c-1.338-6.657-3.086-13.167-5.225-19.5c15.813-4.164,30.313-12.304,42.023-23.298      c14.753,0.181,28.914,4.104,41.251,11.437C483.895,205.579,473.604,216.04,460.893,223.581z M456.386,279.162      c-3.384,0.7-6.83,1.199-10.322,1.497c-6.734-15.612-6.787-33.583,0-49.318c3.492,0.298,6.938,0.797,10.322,1.497      C449.205,247.412,449.199,264.574,456.386,279.162z M417.959,376.255c-3.281-1.086-6.515-2.378-9.688-3.866      c1.997-17.091,11.077-32.599,24.66-42.712c2.875,2.003,5.61,4.158,8.19,6.456C427.615,345.164,419.028,360.025,417.959,376.255z       M448.35,343.394c2.239,2.53,4.335,5.167,6.243,7.925c-10.513,5.819-16.966,16.992-16.748,29.009      c-3.345-0.274-6.681-0.771-9.994-1.446C428.133,364.403,435.823,350.953,448.35,343.394z M398.904,367.302      c-6.082-3.795-11.611-8.259-16.504-13.322c8.839-11.377,16.174-23.974,21.715-37.491c6.831,1.714,13.443,4.266,19.737,7.622      C410.617,335.134,401.78,350.656,398.904,367.302z M336.135,441.118c-2.305-2.583-4.465-5.314-6.463-8.18      c10.096-13.564,25.599-22.669,42.73-24.668c1.479,3.155,2.765,6.391,3.854,9.686      C360.086,419.019,345.193,427.573,336.135,441.118z M378.899,427.854c0.678,3.323,1.149,6.658,1.424,9.992      c-12.008-0.216-23.179,6.229-29.001,16.742c-2.747-1.904-5.4-3.975-7.938-6.223C350.911,435.882,364.318,428.14,378.899,427.854      z M324.11,423.852c-3.355-6.292-5.908-12.904-7.622-19.736c13.518-5.541,26.115-12.876,37.491-21.715      c5.063,4.892,9.526,10.42,13.323,16.503C350.694,401.773,335.161,410.586,324.11,423.852z M232.838,456.386      c-0.7-3.384-1.199-6.83-1.497-10.322c15.611-6.734,33.583-6.788,49.318,0c-0.298,3.491-0.797,6.937-1.497,10.322      C264.588,449.205,247.426,449.198,232.838,456.386z M276.49,466.267c-1.073,3.207-2.31,6.344-3.746,9.378      c-10.293-6.193-23.191-6.196-33.489,0c-1.436-3.034-2.673-6.172-3.746-9.378C248.166,459.284,263.685,459.201,276.49,466.267z       M231.061,435.409c0.245-7.143,1.341-14.139,3.268-20.883c13.949,1.897,28.417,2.03,43.342,0      c1.927,6.744,3.023,13.739,3.268,20.883C264.952,429.528,247.069,429.52,231.061,435.409z M135.744,417.956      c1.089-3.295,2.374-6.53,3.854-9.686c16.796,1.959,32.433,10.834,42.731,24.669c-1.994,2.86-4.153,5.592-6.462,8.182      C166.825,427.599,151.941,419.019,135.744,417.956z M168.613,448.362c-2.537,2.248-5.189,4.322-7.936,6.226      c-5.808-10.49-16.962-16.958-29.001-16.742c0.275-3.334,0.746-6.67,1.424-9.993C147.644,428.138,161.069,435.85,168.613,448.362      z M144.698,398.904c3.795-6.082,8.259-11.611,13.322-16.503c11.377,8.839,23.974,16.174,37.491,21.715      c-1.714,6.831-4.266,13.443-7.623,19.736C176.842,410.589,161.31,401.774,144.698,398.904z M70.879,336.133      c2.581-2.298,5.316-4.453,8.19-6.456c13.584,10.114,22.662,25.622,24.659,42.711c-3.173,1.488-6.406,2.78-9.688,3.866      C92.974,360.043,84.4,345.174,70.879,336.133z M84.149,378.882c-3.313,0.675-6.649,1.172-9.994,1.446      c0.218-12.013-6.232-23.188-16.748-29.008c1.908-2.758,4.004-5.395,6.243-7.925C76.148,350.936,83.867,364.37,84.149,378.882z       M88.148,324.11c6.292-3.356,12.904-5.908,19.736-7.622c5.541,13.517,12.876,26.114,21.715,37.491      c-4.892,5.063-10.421,9.527-16.503,13.322C110.226,350.693,101.414,335.161,88.148,324.11z M76.591,231.062      c7.144,0.245,14.139,1.341,20.882,3.267c-1.891,13.905-2.036,28.372,0,43.342c-6.744,1.927-13.739,3.023-20.882,3.267      C82.472,264.952,82.48,247.07,76.591,231.062z M94.041,135.745c3.281,1.086,6.515,2.378,9.687,3.866      c-1.966,16.82-10.859,32.438-24.659,42.712c-2.875-2.003-5.61-4.158-8.191-6.456C84.385,166.836,92.973,151.975,94.041,135.745z       M63.649,168.605c-2.238-2.53-4.334-5.167-6.243-7.925c10.512-5.818,16.966-16.991,16.748-29.009      c3.345,0.274,6.681,0.771,9.994,1.446C83.867,147.597,76.177,161.046,63.649,168.605z M113.096,144.699      c6.082,3.795,11.611,8.259,16.503,13.322c-8.839,11.377-16.174,23.974-21.715,37.491c-6.831-1.713-13.443-4.266-19.736-7.622      C101.413,176.841,110.226,161.309,113.096,144.699z M175.867,70.879c2.298,2.581,4.453,5.316,6.456,8.191      c-10.155,13.639-25.687,22.669-42.711,24.66c-1.487-3.17-2.778-6.401-3.864-9.679C151.536,93.01,166.608,84.725,175.867,70.879z       M133.118,84.15c-0.675-3.315-1.173-6.653-1.446-10c12.185,0.223,23.264-6.365,29.009-16.743      c2.758,1.908,5.395,4.004,7.925,6.243C161.207,75.91,147.889,83.867,133.118,84.15z M187.89,88.149      c3.356,6.291,5.908,12.904,7.622,19.736c-13.517,5.541-26.114,12.876-37.491,21.715c-5.063-4.892-9.526-10.42-13.322-16.503      C161.401,110.21,176.904,101.337,187.89,88.149z M279.162,55.614c0.7,3.384,1.199,6.83,1.497,10.321      c-15.548,6.708-33.522,6.814-49.317,0c0.298-3.491,0.796-6.937,1.497-10.321C247.411,62.794,264.574,62.802,279.162,55.614z       M235.51,45.733c1.073-3.207,2.31-6.344,3.746-9.378c10.292,6.192,23.191,6.195,33.489,0c1.436,3.034,2.673,6.171,3.746,9.378      C263.834,52.716,248.317,52.799,235.51,45.733z M280.939,76.591c-0.245,7.143-1.341,14.139-3.268,20.883      c-14.279-1.942-28.81-1.976-43.342,0c-1.927-6.744-3.023-13.74-3.268-20.883C247.046,82.472,264.931,82.48,280.939,76.591z       M376.252,94.05c-1.086,3.278-2.377,6.509-3.864,9.679c-16.891-1.975-32.476-10.912-42.712-24.66      c2.003-2.875,4.158-5.61,6.456-8.191C344.98,84.109,359.73,92.962,376.252,94.05z M343.394,63.649      c2.53-2.238,5.167-4.334,7.925-6.243c5.774,10.432,16.888,16.965,29.009,16.743c-0.273,3.347-0.771,6.684-1.446,9.999      C364.429,83.868,350.968,76.2,343.394,63.649z M367.302,113.096c-3.796,6.083-8.26,11.612-13.323,16.504      c-11.69-9.082-24.577-16.422-37.491-21.715c1.714-6.831,4.266-13.443,7.622-19.736      C335.088,101.328,350.588,110.209,367.302,113.096z M441.122,175.867c-2.581,2.298-5.316,4.453-8.191,6.456      c-13.583-10.112-22.663-25.623-24.659-42.712c3.173-1.489,6.406-2.781,9.688-3.867      C419.026,151.958,427.6,166.826,441.122,175.867z M427.851,133.117c3.313-0.675,6.648-1.172,9.994-1.446      c-0.218,12.013,6.231,23.189,16.748,29.009c-1.908,2.758-4.004,5.395-6.243,7.925      C435.851,161.063,428.133,147.629,427.851,133.117z M423.852,187.89c-6.292,3.356-12.904,5.908-19.736,7.622      c-5.54-13.517-12.876-26.114-21.715-37.491c4.893-5.063,10.421-9.527,16.504-13.322      C401.774,161.309,410.587,176.84,423.852,187.89z M396.158,309.425c-5.767-14.46-21.692-22.217-36.682-17.602      c1.773-5.106,3.177-10.382,4.182-15.797c10.681,11.538,28.286,12.865,40.54,3.207      C402.565,289.692,399.842,299.793,396.158,309.425z M340.824,367.981c0,11.028-8.972,20-20,20c-11.028,0-20-8.972-20-20      c0-7.441,3.481-13.321,11.182-17.924C325.326,343.477,340.824,353.27,340.824,367.981z M256,355.333      c-56.136,0-99.5-45.451-99.5-99.333c0-54.864,44.636-99.5,99.5-99.5s99.5,44.636,99.5,99.5      C355.5,309.463,312.507,355.333,256,355.333z M276,385.333c0,11.028-8.972,20-20,20c-11.028,0-20-8.972-20-20      c0-10.257,7.981-19.833,20-19.833C268.036,365.5,276,375.101,276,385.333z M211.17,367.981c0,11.028-8.972,20-20,20      c-11.028,0-20-8.972-20-20c0-14.764,15.559-24.503,28.848-17.909C207.723,354.675,211.17,360.596,211.17,367.981z       M123.71,320.509c0-11.028,8.972-20,20-20c11.028,0,20,8.972,20,20s-8.972,20-20,20      C132.682,340.509,123.71,331.537,123.71,320.509z M115.842,309.425c-3.684-9.631-6.407-19.733-8.04-30.193      c12.25,9.655,29.856,8.335,40.54-3.207c1.006,5.419,2.412,10.699,4.186,15.809C137.469,287.194,121.587,295.033,115.842,309.425      z M115.967,202.245c5.949,14.401,21.944,21.915,36.824,17.174c-1.837,5.167-3.295,10.512-4.343,16      c-10.617-11.587-28.216-13.009-40.52-3.418C109.593,221.696,112.31,211.739,115.967,202.245z M143.705,210.83      c-11.028,0-20-8.972-20-20s8.972-20,20-20c11.028,0,20,8.972,20,20S154.734,210.83,143.705,210.83z M146.333,255.667      c0,11.028-8.972,20-20,20s-20-8.972-20-20c0-11.028,8.972-20,20-20S146.333,244.639,146.333,255.667z M191.167,123.37      c11.028,0,20,8.972,20,20c0,11.028-8.972,20-20,20c-11.028,0-20-8.972-20-20C171.167,132.342,180.138,123.37,191.167,123.37z       M256,106c11.028,0,20,8.972,20,20s-8.972,20-20,20c-11.028,0-20-8.972-20-20S244.972,106,256,106z M340.83,143.364      c0,11.028-8.972,20-20,20c-11.028,0-20-8.972-20-20c0-11.028,8.972-20,20-20C331.858,123.364,340.83,132.336,340.83,143.364z       M388.295,190.826c0,11.028-8.972,20-20,20c-11.028,0-20-8.972-20-20c0-11.028,8.972-20,20-20      C379.323,170.826,388.295,179.798,388.295,190.826z M368.286,300.5c11.028,0,20,8.972,20,20s-8.972,20-20,20      c-11.028,0-20-8.972-20-20S357.258,300.5,368.286,300.5z M365.667,255.667c0-11.028,8.972-20,20-20c11.028,0,20,8.972,20,20      c0,11.028-8.972,20-20,20C374.639,275.667,365.667,266.695,365.667,255.667z M363.552,235.42      c-1.048-5.491-2.507-10.836-4.345-16.005c14.855,4.733,30.867-2.752,36.825-17.172c3.658,9.495,6.375,19.452,8.039,29.758      C391.775,222.417,374.176,223.826,363.552,235.42z M338.949,184.597c-3.67-4.257-7.663-8.227-11.937-11.877      c14.825-3.118,25.539-17.172,23.583-33.039c7.847,6.393,15.038,13.56,21.453,21.388      C356.175,159.077,342.094,169.766,338.949,184.597z M292.326,152.702c-5.271-1.859-10.723-3.327-16.326-4.365      c11.639-10.432,13.348-27.981,3.917-40.422c10.114,1.627,19.891,4.271,29.227,7.819      C294.836,121.809,287.447,137.844,292.326,152.702z M232.083,107.915c-9.434,12.445-7.719,29.993,3.917,40.422      c-5.603,1.038-11.056,2.506-16.327,4.365c4.895-14.912-2.568-30.915-16.825-36.964      C212.186,112.187,221.966,109.543,232.083,107.915z M161.401,139.683c-1.955,15.872,8.756,29.922,23.581,33.042      c-4.272,3.649-8.264,7.617-11.932,11.873c-3.147-14.833-17.23-25.518-33.103-23.524      C146.363,153.245,153.554,146.077,161.401,139.683z M172.934,327.265c3.529,4.108,7.353,7.955,11.446,11.501      c-14.983,3.482-25.202,17.96-22.882,33.629c-8.129-6.613-15.553-14.058-22.144-22.205      C155.128,352.495,169.497,342.136,172.934,327.265z M219.908,359.381c5.011,1.755,10.187,3.154,15.498,4.168      c-11.43,10.812-12.573,28.475-2.719,40.636c-10.633-1.667-20.898-4.457-30.673-8.241      C216.473,390.318,224.435,374.48,219.908,359.381z M279.314,404.185c9.861-12.171,8.7-29.835-2.719-40.636      c5.309-1.014,10.483-2.413,15.492-4.166c-4.526,15.101,3.436,30.937,17.897,36.563      C300.21,399.729,289.946,402.519,279.314,404.185z M350.497,372.399c2.325-15.681-7.908-30.151-22.877-33.632      c4.093-3.546,7.917-7.393,11.446-11.5c3.436,14.84,17.784,25.229,33.59,22.912C366.06,358.332,358.632,365.782,350.497,372.399z       M414.527,234.329c6.743-1.927,13.739-3.022,20.882-3.267c-5.881,15.986-5.889,33.869,0,49.877      c-7.143-0.245-14.139-1.341-20.883-3.267C416.418,263.766,416.563,249.298,414.527,234.329z M489.308,180.867      c-9.613-4.662-20.012-7.61-30.809-8.736c6.794-8.377,12.092-17.827,15.612-27.961      C480.176,155.969,485.255,168.235,489.308,180.867z M459.765,152.109c-7.455-3.967-12.213-11.907-11.91-20.63      c6.336,0.247,12.633,1.199,18.765,2.922C465.044,140.57,462.72,146.499,459.765,152.109z M437.719,91.656      c8.948,9.872,16.995,20.363,24.13,31.36c-10.517-2.009-21.328-2.145-31.959-0.454      C434.304,112.687,436.939,102.257,437.719,91.656z M420.343,74.28c-10.601,0.78-21.031,3.415-30.905,7.83      c1.691-10.631,1.555-21.443-0.454-31.959C399.98,57.286,410.472,65.332,420.343,74.28z M427.971,84.03      c0.174,14.349-3.505,28.554-10.733,41.443c-15.385,4.649-29.734,13.175-41.245,24.813c-4.457-5.052-9.226-9.822-14.278-14.278      c11.36-11.236,20.043-25.462,24.812-41.245C399.417,87.535,413.631,83.865,427.971,84.03z M380.521,64.145      c-8.433,0.293-16.526-4.198-20.629-11.91c5.61-2.955,11.539-5.279,17.708-6.854C379.322,51.512,380.274,57.809,380.521,64.145z       M367.83,37.889c-10.13,3.519-19.577,8.813-27.951,15.603c-1.119-10.803-4.076-21.193-8.74-30.798      C343.769,26.746,356.033,31.825,367.83,37.889z M330.377,62.338c-10.791,11.493-19.066,25.955-23.297,42.023      c-6.333-2.139-12.843-3.887-19.501-5.225c4.321-15.827,4.484-32.482,0.84-48.029c7.542-12.712,18.003-23.001,30.522-30.02      C326.274,33.426,330.193,47.565,330.377,62.338z M307.526,16.413c-8.82,5.981-16.557,13.493-22.914,22.278      c-3.841-10.026-9.347-19.299-16.318-27.389C281.599,11.955,294.706,13.683,307.526,16.413z M256,12.803      c4.555,4.449,8.526,9.426,11.907,14.788c-7.184,4.484-16.435,4.606-23.813,0C247.474,22.229,251.445,17.251,256,12.803z       M243.707,11.302c-6.971,8.09-12.477,17.362-16.318,27.389c-6.357-8.785-14.094-16.296-22.914-22.278      C217.294,13.683,230.401,11.955,243.707,11.302z M193.06,21.087c12.519,7.019,22.979,17.308,30.522,30.02      c-3.633,15.496-3.496,32.143,0.84,48.029c-6.658,1.338-13.168,3.086-19.501,5.225c-4.219-16.025-12.479-30.499-23.297-42.022      C181.807,47.566,185.726,33.426,193.06,21.087z M180.861,22.694c-4.667,9.609-7.624,20.001-8.742,30.797      c-8.374-6.79-17.82-12.083-27.949-15.602C155.967,31.825,168.231,26.746,180.861,22.694z M134.4,45.381      c6.17,1.575,12.099,3.899,17.708,6.854c-3.972,7.466-11.918,12.212-20.629,11.91C131.726,57.809,132.678,51.512,134.4,45.381z       M123.016,50.151c-2.009,10.516-2.145,21.328-0.453,31.959c-9.875-4.414-20.306-7.048-30.908-7.828      C101.526,65.334,112.019,57.286,123.016,50.151z M125.474,94.763c4.573,15.137,12.971,29.534,24.812,41.245      c-5.052,4.456-9.821,9.226-14.278,14.278c-11.513-11.641-25.865-20.165-41.245-24.812      c-7.228-12.889-10.908-27.095-10.734-41.444C98.367,83.869,112.584,87.536,125.474,94.763z M74.282,91.656      c0.78,10.602,3.414,21.032,7.829,30.907c-10.631-1.692-21.443-1.555-31.959,0.453C57.286,112.019,65.333,101.527,74.282,91.656z       M64.146,131.479c0.294,8.456-4.221,16.538-11.91,20.63c-2.955-5.61-5.279-11.538-6.854-17.708      C51.512,132.678,57.809,131.725,64.146,131.479z M37.889,144.171c3.52,10.133,8.817,19.584,15.611,27.96      c-10.797,1.125-21.197,4.076-30.807,8.737C26.745,168.235,31.824,155.969,37.889,144.171z M62.336,181.621      c11.684,10.97,26.18,19.127,42.025,23.3c-2.139,6.333-3.887,12.843-5.225,19.5c-15.859-4.329-32.513-4.477-48.029-0.839      c-12.712-7.541-23.002-18.002-30.02-30.522C33.414,185.733,47.506,181.794,62.336,181.621z M55.614,232.838      c3.384-0.7,6.83-1.199,10.322-1.497c6.734,15.611,6.788,33.583,0,49.318c-3.491-0.298-6.937-0.797-10.322-1.497      C62.794,264.589,62.802,247.426,55.614,232.838z M36.355,239.256c3.034-1.436,6.171-2.673,9.378-3.746      c6.982,12.656,7.066,28.174,0,40.98c-3.207-1.073-6.344-2.31-9.378-3.746C42.548,262.452,42.551,249.553,36.355,239.256z       M16.413,204.475c5.981,8.82,13.492,16.557,22.277,22.914c-10.026,3.841-19.298,9.347-27.388,16.318      C11.955,230.401,13.683,217.294,16.413,204.475z M27.591,267.907c-5.363-3.38-10.34-7.352-14.788-11.907      c4.449-4.555,9.426-8.527,14.788-11.907C32.066,251.262,32.206,260.513,27.591,267.907z M11.302,268.293      c8.089,6.972,17.362,12.477,27.388,16.319c-8.785,6.357-16.296,14.094-22.277,22.914      C13.683,294.706,11.955,281.599,11.302,268.293z M51.107,288.418c15.398,3.61,32.024,3.53,48.029-0.84      c1.338,6.657,3.086,13.168,5.225,19.501c-16.056,4.228-30.522,12.501-42.021,23.297c-14.757-0.187-28.914-4.102-41.253-11.436      C28.105,306.422,38.395,295.961,51.107,288.418z M22.695,331.142c9.609,4.667,20.003,7.62,30.798,8.737      c-6.791,8.374-12.085,17.821-15.604,27.951C31.825,356.034,26.747,343.771,22.695,331.142z M52.235,359.891      c7.464,3.972,12.212,11.916,11.91,20.629c-6.336-0.246-12.633-1.198-18.765-2.921C46.956,371.43,49.28,365.501,52.235,359.891z       M74.282,420.345c-8.953-9.878-17.004-20.375-24.142-31.379c10.577,2.022,21.198,2.177,31.975,0.461      C77.697,399.306,75.062,409.739,74.282,420.345z M91.662,437.725c10.603-0.781,21.031-3.431,30.908-7.847      c-1.716,10.714-1.554,21.503,0.454,31.976C112.026,454.719,101.534,446.673,91.662,437.725z M84.029,427.971      c-0.174-14.349,3.505-28.555,10.733-41.444c14.95-4.516,29.475-12.912,41.245-24.813c4.457,5.052,9.226,9.822,14.278,14.278      c-12.005,11.873-20.322,26.385-24.799,41.238C112.594,424.463,98.397,428.14,84.029,427.971z M131.454,447.856      c8.594-0.309,16.628,4.321,20.666,11.933c-5.625,2.964-11.56,5.263-17.72,6.831      C132.678,460.499,131.701,454.209,131.454,447.856z M144.163,474.107c10.085-3.496,19.523-8.755,27.957-15.608      c1.118,10.807,4.076,21.2,8.741,30.807C168.228,485.253,155.962,480.173,144.163,474.107z M181.623,449.643      c10.694-11.38,19.037-25.825,23.297-42.004c6.333,2.139,12.844,3.887,19.501,5.225c-4.32,15.826-4.485,32.481-0.84,48.029      c-7.542,12.712-18.003,23.001-30.522,30.02C185.723,478.569,181.803,464.422,181.623,449.643z M204.475,495.587      c8.82-5.981,16.557-13.492,22.914-22.277c3.841,10.026,9.347,19.299,16.318,27.388      C230.401,500.045,217.294,498.317,204.475,495.587z M256,499.197c-4.555-4.449-8.527-9.426-11.907-14.788      c7.176-4.479,16.426-4.611,23.814,0C264.527,489.772,260.555,494.749,256,499.197z M268.293,500.698      c6.971-8.089,12.477-17.362,16.318-27.388c6.357,8.785,14.094,16.296,22.914,22.277      C294.706,498.317,281.599,500.045,268.293,500.698z M318.94,490.913c-12.519-7.019-22.979-17.308-30.522-30.02      c3.64-15.525,3.489-32.175-0.84-48.029c6.657-1.338,13.168-3.086,19.501-5.225c4.313,16.379,12.762,30.798,23.297,41.996      C330.198,464.417,326.279,478.567,318.94,490.913z M331.139,489.306c4.668-9.613,7.627-20.008,8.744-30.805      c8.434,6.852,17.871,12.11,27.955,15.606C356.038,480.173,343.772,485.253,331.139,489.306z M377.6,466.62      c-6.16-1.569-12.096-3.866-17.72-6.83c4.03-7.596,12.055-12.243,20.667-11.934C380.299,454.209,379.322,460.499,377.6,466.62z       M388.976,461.854c2.008-10.473,2.17-21.262,0.455-31.976c9.876,4.416,20.303,7.066,30.907,7.847      C410.466,446.673,399.974,454.719,388.976,461.854z M386.514,417.231c-4.475-14.841-12.775-29.346-24.8-41.239      c5.052-4.457,9.822-9.226,14.278-14.278c11.732,11.863,26.242,20.281,41.246,24.814c7.227,12.889,10.906,27.094,10.732,41.443      C413.458,428.145,399.273,424.389,386.514,417.231z M437.719,420.345c-0.78-10.605-3.416-21.039-7.833-30.917      c11.183,1.78,21.806,1.482,31.975-0.462C454.723,399.97,446.672,410.468,437.719,420.345z M447.854,380.521      c-0.293-8.44,4.205-16.529,11.91-20.629c2.955,5.61,5.279,11.538,6.854,17.708C460.488,379.322,454.19,380.274,447.854,380.521z       M474.111,367.829c-3.519-10.131-8.814-19.579-15.605-27.953c10.803-1.119,21.195-4.072,30.799-8.735      C485.253,343.771,480.175,356.033,474.111,367.829z M449.662,330.377c-11.496-10.793-25.957-19.067-42.023-23.297      c2.139-6.333,3.887-12.843,5.225-19.501c15.383,4.199,32.006,4.596,48.03,0.84c12.712,7.543,23.001,18.003,30.02,30.522      C478.574,326.274,464.435,330.194,449.662,330.377z M495.587,307.525c-5.981-8.82-13.492-16.557-22.277-22.914      c10.026-3.841,19.299-9.347,27.388-16.319C500.045,281.599,498.317,294.706,495.587,307.525z M484.409,244.093      c5.363,3.38,10.34,7.352,14.788,11.907c-4.449,4.555-9.426,8.527-14.789,11.907      C479.921,260.717,479.806,251.466,484.409,244.093z M473.31,227.389c8.785-6.357,16.296-14.094,22.277-22.914      c2.73,12.819,4.458,25.926,5.111,39.232C492.609,236.736,483.337,231.23,473.31,227.389z"/></g></g></g></g><g id="Layer_1"/></svg>