<svg xmlns="http://www.w3.org/2000/svg" viewBox="0 0 24 24" fill="currentColor" width="24" height="24">
  <path d="M12 0C5.373 0 0 5.373 0 12c0 5.3 3.438 9.8 8.207 11.396.6.111.793-.258.793-.574 0-.287-.01-1.047-.016-2.064-3.338.727-4.035-1.61-4.035-1.61-.546-1.391-1.334-1.764-1.334-1.764-1.088-.743.082-.727.082-.727 1.205.085 1.84 1.247 1.84 1.247 1.07 1.832 2.808 1.303 3.493.998.108-.774.418-1.303.76-1.604-2.666-.305-5.467-1.333-5.467-5.932 0-1.31.47-2.379 1.244-3.215-.126-.304-.538-.907.098-1.866 0 0 1.004-.322 3.29 1.23A11.76 11.76 0 0 1 12 4.513a11.774 11.774 0 0 1 2.911.398c2.285-1.553 3.289-1.23 3.289-1.23.636.96.224 1.563.098 1.866.774.836 1.244 1.905 1.244 3.215 0 4.604-2.806 5.623-5.478 5.932.431.37.818 1.097.818 2.216 0 1.601-.014 2.894-.014 3.282 0 .318.192.688.797.574C20.563 21.8 24 17.3 24 12c0-6.627-5.373-12-12-12z"/>
</svg>
