<?xml version="1.0" ?><svg xmlns="http://www.w3.org/2000/svg" xmlns:xlink="http://www.w3.org/1999/xlink" version="1.1" viewBox="0 0 512 512" style="enable-background:new 0 0 512 512;" xml:space="preserve"><g id="_x31_1_x2C__Mandala_x2C__Flower_x2C__Cultures_x2C__Wellness_x2C__Meditation_x2C__Spiritual_x2C__Floral_Design_x2C__Ornamental"><g><circle id="XMLID_2583_" style="fill:#FFFFFF;" cx="256" cy="256" r="250"/><g id="XMLID_2584_"><circle id="XMLID_2640_" style="fill:#FFFFFF;" cx="256" cy="256.04" r="25.04"/><path id="XMLID_2637_" style="fill:#95E8FD;stroke:#272325;stroke-miterlimit:10;" d="M211.14,274.64     c-4.92-11.795-4.945-25.285-0.02-37.15c0.01,0,0.02,0,0.03,0c-0.01-0.01-0.01-0.01-0.02-0.02c4.9-11.87,14.39-21.37,26.26-26.29     c0.01,0.01,0.02,0.02,0.03,0.03c0-0.01,0-0.03,0-0.04c11.824-4.92,25.323-4.925,37.16,0c0,0.01,0,0.03,0,0.04     c0.01-0.01,0.02-0.02,0.03-0.03c11.87,4.92,21.36,14.42,26.26,26.29c-0.01,0.01-0.01,0.01-0.02,0.02c0.01,0,0.02,0,0.03,0     c4.919,11.851,4.906,25.34-0.02,37.15c0.01,0.01,0.01,0.01,0,0.01c-4.92,11.86-14.41,21.35-26.28,26.26     c-24.5,10.194-53.093-1.318-63.44-26.26C211.13,274.65,211.13,274.65,211.14,274.64z M281.04,256.04     c0-13.83-11.21-25.04-25.04-25.04c-13.83,0-25.04,11.21-25.04,25.04c0,13.83,11.21,25.04,25.04,25.04     C269.83,281.08,281.04,269.87,281.04,256.04z"/><path id="XMLID_2636_" style="fill:#FFFFFF;" d="M199.48,199.54c15.032-15.021,35.241-23.41,56.52-23.41     c-11.28,7.45-18.62,19.6-18.62,33.32c0,0.58,0.02,1.15,0.04,1.72c-0.01,0-0.02,0-0.03,0.01c-0.38-0.42-0.77-0.84-1.18-1.24     C226.5,200.23,212.72,196.83,199.48,199.54z"/><path id="XMLID_2635_" style="fill:#FFFFFF;" d="M199.47,199.54h0.01c-2.71,13.24,0.69,27.03,10.39,36.73     c0.41,0.41,0.84,0.81,1.26,1.2c0,0-0.02,0.01-0.01,0.02c-13.481-0.697-26.82,6.104-35.06,18.57     C176.06,234.808,184.431,214.59,199.47,199.54z"/><path id="XMLID_2634_" style="fill:#FFFFFF;" d="M176.06,256.06c8.4,12.718,21.829,19.254,35.08,18.58     c-0.01,0.01-0.01,0.01,0,0.01c-0.43,0.4-0.85,0.79-1.27,1.2c-9.7,9.71-13.1,23.5-10.39,36.74     C184.921,298.031,176.06,278.012,176.06,256.06z"/><path id="XMLID_2633_" style="fill:#FFFFFF;" d="M199.48,312.59c14.662,3.001,28.829-1.625,37.94-11.67     c-0.02,0.58-0.04,1.16-0.04,1.75c0,13.73,7.34,25.88,18.62,33.33C234.609,336,214.434,327.544,199.48,312.59z"/><path id="XMLID_2632_" style="fill:#FFFFFF;" d="M312.52,312.59c-6.17,6.17-13.34,11.34-21.25,15.23     c-1.008,0.368-2.146,0.927-3.04,1.41c-0.01,0.01-0.02,0.02-0.03,0.02c-9.85,4.34-20.74,6.75-32.2,6.75     c11.28-7.45,18.62-19.6,18.62-33.33c0-0.59-0.02-1.17-0.04-1.75C283.701,310.976,297.875,315.588,312.52,312.59z"/><path id="XMLID_2631_" style="fill:#FFFFFF;" d="M327.76,291.33c-3.9,7.92-9.07,15.09-15.24,21.26     c2.71-13.24-0.69-27.03-10.39-36.74c-0.42-0.41-0.84-0.8-1.27-1.2c0.01,0,0.01,0,0-0.01c13.271,0.675,26.691-5.879,35.08-18.58     c0,11.46-2.41,22.35-6.75,32.2c0,0.01-0.01,0.02-0.02,0.03C328.693,289.173,328.132,290.313,327.76,291.33z"/><path id="XMLID_2630_" style="fill:#FFFFFF;" d="M333.54,236.58c1.57,6.23,2.4,12.76,2.4,19.48     c-8.24-12.465-21.578-19.267-35.06-18.57c0.01-0.01-0.01-0.02-0.01-0.02c0.42-0.39,0.85-0.79,1.26-1.2     c9.7-9.7,13.1-23.49,10.39-36.73c9.44,9.43,16.54,21.23,20.33,34.42c0.09,0.46,0.2,0.91,0.32,1.36     C333.28,235.75,333.41,236.17,333.54,236.58z"/><path id="XMLID_2629_" style="fill:#FFFFFF;" d="M312.52,199.54c-14.557-2.979-28.796,1.567-37.91,11.64     c-0.01-0.01-0.02-0.01-0.03-0.01c0.02-0.57,0.04-1.14,0.04-1.72c0-13.72-7.34-25.87-18.62-33.32c17.04,0,32.82,5.33,45.79,14.41     C305.63,193.22,309.22,196.23,312.52,199.54z"/><path id="XMLID_2628_" style="fill:#FFFFFF;" d="M237.39,211.18c-11.87,4.92-21.36,14.42-26.26,26.29     c-0.42-0.39-0.85-0.79-1.26-1.2c-9.7-9.7-13.1-23.49-10.39-36.73C214.037,196.561,228.277,201.107,237.39,211.18z"/><path id="XMLID_2627_" style="fill:#FFFFFF;" d="M211.12,237.49c-4.919,11.851-4.906,25.34,0.02,37.15     c-13.271,0.675-26.691-5.879-35.08-18.58C184.3,243.595,197.638,236.793,211.12,237.49z"/><path id="XMLID_2626_" style="fill:#FFFFFF;" d="M211.14,274.65c4.92,11.86,14.41,21.35,26.28,26.26v0.01     c-9.121,10.056-23.295,14.668-37.94,11.67c-2.71-13.24,0.69-27.03,10.39-36.74C210.29,275.44,210.71,275.05,211.14,274.65z"/><path id="XMLID_2625_" style="fill:#FFFFFF;" d="M274.62,302.67c0,13.73-7.34,25.88-18.62,33.33     c-11.28-7.45-18.62-19.6-18.62-33.33c0-0.579,0.02-1.162,0.04-1.76c11.824,4.92,25.323,4.925,37.16,0     C274.601,301.511,274.62,302.091,274.62,302.67z"/><path id="XMLID_2624_" style="fill:#FFFFFF;" d="M274.58,300.92v-0.01c11.87-4.91,21.36-14.4,26.28-26.26     c0.43,0.4,0.85,0.79,1.27,1.2c9.7,9.71,13.1,23.5,10.39,36.74C297.858,315.591,283.69,310.965,274.58,300.92z"/><path id="XMLID_2623_" style="fill:#FFFFFF;" d="M335.94,256.06c-8.4,12.718-21.829,19.254-35.08,18.58     c4.92-11.795,4.945-25.285,0.02-37.15C301.46,237.46,327.7,243.594,335.94,256.06z"/><path id="XMLID_2622_" style="fill:#FFFFFF;" d="M312.52,199.54c2.71,13.24-0.69,27.03-10.39,36.73     c-0.41,0.41-0.84,0.81-1.26,1.2c-4.9-11.87-14.39-21.37-26.26-26.29C283.717,201.114,297.953,196.558,312.52,199.54z"/><path id="XMLID_2621_" style="fill:#FFFFFF;" d="M237.38,209.45c0-13.72,7.34-25.87,18.62-33.32     c11.28,7.45,18.62,19.6,18.62,33.32c0,0.58-0.02,1.15-0.04,1.72c-11.824-4.92-25.323-4.925-37.16,0     C237.4,210.6,237.38,210.03,237.38,209.45z"/><path id="XMLID_2620_" style="fill:#FFFFFF;" d="M249.32,176.34l0.01,0.07c-19.41,1.6-36.85,10.14-49.85,23.13h-0.01l-0.05-0.06     c2.84-2.84,5.04-6.31,6.38-10.18c5.017-14.539,4.539-29.732-1.18-43.38c6.46,12.58,17.54,23.08,32.46,28.79     C240.84,176.15,244.881,176.744,249.32,176.34z"/><path id="XMLID_2619_" style="fill:#FFFFFF;" d="M189.24,205.86c3.87-1.34,7.34-3.54,10.18-6.38l0.05,0.06     c-12.99,13-21.53,30.44-23.13,49.85h-0.06c0.01-0.12,0.02-0.23,0.03-0.35c0.348-3.883-0.175-8.024-1.66-11.9     c-5.7-14.9-16.18-25.97-28.74-32.44c7.15,2.99,14.95,4.62,23.03,4.62C175.59,209.32,182.43,208.22,189.24,205.86z"/><path id="XMLID_2618_" style="fill:#FFFFFF;" d="M190.48,301.86l-0.02,0.01c-2.3-3.29-5.34-6.06-8.92-8.05     c-13.596-7.568-28.744-9.595-42.98-6.35c13.53-4.18,25.83-13.28,34.05-27c2.04-3.41,3.27-7.21,3.67-11.08h0.06     C174.779,267.463,179.488,286.177,190.48,301.86z"/><path id="XMLID_2617_" style="fill:#FFFFFF;" d="M233.97,332.93c-1.85-0.41-3.76-0.61-5.67-0.61c-1.68,0-3.37,0.16-5.05,0.48     c-15.73,3.04-28.49,11.5-37.05,22.82c8.04-12.419,11.196-27.388,8.77-42.62c-0.65-4.04-2.21-7.84-4.51-11.13l0.02-0.01     c2.68,3.84,5.7,7.43,9,10.73C208.94,322.05,220.76,329.15,233.97,332.93z"/><path id="XMLID_2616_" style="fill:#FFFFFF;" d="M288.2,329.25c-3.02,1.64-5.72,3.87-7.94,6.6     c-9.675,11.911-14.455,26.415-13.71,41.32c-1.74-14.09-8.56-27.81-20.68-38.31c-2.79-2.42-6.03-4.21-9.49-5.29     c6.28,1.59,12.85,2.43,19.62,2.43C267.46,336,278.35,333.59,288.2,329.25z"/><path id="XMLID_2615_" style="fill:#FFFFFF;" d="M341.84,341.91c-11.528-10.663-26.456-15.96-40.78-15.96     c-3.38,0-6.7,0.65-9.79,1.87c15.523-7.634,28.57-20.407,36.49-36.49c-1.22,3.09-1.87,6.41-1.87,9.79     C325.89,315.687,331.33,330.547,341.84,341.91z"/><path id="XMLID_2614_" style="fill:#FFFFFF;" d="M377.11,266.61c-15.036-0.744-29.489,4.1-41.32,13.71     c-2.73,2.22-4.96,4.92-6.6,7.94c7.377-16.743,8.521-35.13,4.35-51.68c1.1,3.4,2.87,6.59,5.26,9.35     C349.3,258.05,363.02,264.87,377.11,266.61z"/><path id="XMLID_2613_" style="fill:#FFFFFF;" d="M355.51,186.29c-11.29,8.56-19.74,21.31-22.77,37.02     c-0.699,3.557-0.64,7.219,0.11,10.65c-5.229-18.197-16.637-33.354-31.06-43.42l0.01-0.02c3.29,2.3,7.09,3.87,11.14,4.52     C328.74,197.56,343.6,193.98,355.51,186.29z"/><path id="XMLID_2612_" style="fill:#FFFFFF;" d="M249.32,176.34c6.75-1.47,8.99-2.41,11.09-3.67     c13.73-8.22,22.83-20.52,26.99-34.07c-0.98,4.3-1.49,8.74-1.49,13.24c0,9.93,2.49,20.13,7.84,29.76     c1.99,3.58,4.77,6.62,8.05,8.92l-0.01,0.02c-15.753-11.029-34.47-15.684-52.46-14.13L249.32,176.34z"/><path id="XMLID_2611_" style="fill:#FFFFFF;" d="M214.14,77.92c-0.91,1.26-1.87,2.5-2.85,3.72     c-14.34,17.799-16.802,40.674-8.63,60.1c-9.45-18.41-28.34-31.55-51.58-32.02c-1.57-0.03-3.13-0.1-4.68-0.2v-0.01     c-1.2-16.08,7.49-31.95,22.97-39.17S202.6,66.68,214.14,77.92z"/><path id="XMLID_2610_" style="fill:#FFFFFF;" d="M141.63,202.7c-19.58-8.221-42.411-5.562-60.05,8.65     c-1.23,0.99-2.47,1.94-3.73,2.86c-11.24-11.55-14.79-29.3-7.58-44.78c7.22-15.48,23.1-24.17,39.18-22.99h0.01     c0.1,1.57,0.17,3.13,0.2,4.71C110.13,174.35,123.24,193.23,141.63,202.7z"/><path id="XMLID_2609_" style="fill:#FFFFFF;" d="M134.15,288.65c-19.77,6.12-35.98,22.44-40.48,45.23     c-0.3,1.54-0.64,3.07-1.01,4.59h-0.01c-16.04-1.62-30.16-12.94-34.59-29.43c-4.41-16.51,2.17-33.36,15.25-42.79     c1.08,1.13,2.14,2.29,3.17,3.47C91.418,286.809,113.521,293.378,134.15,288.65z"/><path id="XMLID_2608_" style="fill:#FFFFFF;" d="M183.87,424.14l-0.02,0.01c-13.34,9.06-31.42,9.48-45.41-0.32     c-13.99-9.8-19.79-26.94-15.82-42.58c1.55,0.17,3.1,0.38,4.65,0.62c22.99,3.58,43.9-6.11,56.4-22.64     c-11.693,18.104-12.82,41.05-1.98,60.74C182.45,421.35,183.17,422.74,183.87,424.14z"/><path id="XMLID_2607_" style="fill:#FFFFFF;" d="M304.45,429.35c1.46,0.57,2.91,1.17,4.34,1.8     c-4.39,15.52-17.97,27.46-34.99,28.95c-17.01,1.48-32.47-7.92-39.48-22.44c1.3-0.87,2.62-1.71,3.96-2.52     c19.447-11.761,29.731-32.381,28.66-53.58C269.51,402.12,282.76,420.95,304.45,429.35z"/><path id="XMLID_2606_" style="fill:#FFFFFF;" d="M409,356.2c6.62,14.71,3.88,32.59-8.19,44.67     c-12.08,12.08-29.95,14.81-44.67,8.2h-0.01c0.44-1.5,0.91-2.99,1.42-4.48c7.387-21.664,1.873-43.952-12.44-59.41     c15.45,14.306,37.735,19.831,59.41,12.44C406.01,357.11,407.5,356.64,409,356.2z"/><path id="XMLID_2605_" style="fill:#FFFFFF;" d="M437.59,234.38c14.52,7.02,23.93,22.46,22.45,39.49     c-1.5,17.01-13.44,30.61-28.96,34.99c-0.63-1.43-1.23-2.88-1.8-4.34v-0.01c-8.39-21.69-27.23-34.94-47.8-37.51     c21.049,1.063,41.74-9.066,53.59-28.66C435.88,237,436.72,235.68,437.59,234.38z"/><path id="XMLID_2604_" style="fill:#FFFFFF;" d="M423.77,138.5c9.79,13.99,9.38,32.09,0.31,45.42v0.01     c-1.4-0.7-2.79-1.42-4.17-2.18c-19.943-10.967-42.844-9.557-60.7,1.95c16.817-12.743,26.124-33.805,22.6-56.36     c-0.24-1.56-0.45-3.12-0.62-4.67C396.83,118.71,413.97,124.51,423.77,138.5z"/><path id="XMLID_2603_" style="fill:#FFFFFF;" d="M338.4,92.72c-1.51,0.37-3.04,0.71-4.58,1.01     c-22.79,4.5-39.11,20.72-45.24,40.49c0.99-4.32,1.48-8.74,1.48-13.16c0-16.22-6.67-32.5-20.41-44.52     c-1.18-1.03-2.33-2.08-3.46-3.17c9.42-13.08,26.28-19.66,42.78-15.25C325.46,62.55,336.78,76.67,338.4,92.72z"/><path id="XMLID_2602_" style="fill:#FFFFFF;" d="M79.29,79.35c15.644,15.644,101.853,101.853,120.13,120.13     c-2.84,2.84-6.31,5.04-10.18,6.38c-38.702,13.412-78.75-13.758-79.58-54.71C109.16,124.808,98.761,98.821,79.29,79.35z"/><path id="XMLID_2601_" style="fill:#FFFFFF;" d="M176.31,249.04c-0.314,3.768-1.535,7.81-3.7,11.43     c-8.22,13.72-20.52,22.82-34.05,27c-1.49,0.33-2.96,0.73-4.41,1.18c-20.545,4.708-42.656-1.753-57.67-18.93     c-17.41-19.946-42.093-33.107-69.42-35.48C7.968,234.319,171.52,248.621,176.31,249.04z"/><path id="XMLID_2600_" style="fill:#FFFFFF;" d="M51.29,399.31l94.14-65.91v-0.01c2.539-1.777-12.405,8.683,45.03-31.52     c2.3,3.29,3.86,7.09,4.51,11.13c6.467,40.597-27.342,75.155-67.7,68.87c-1.55-0.24-3.1-0.45-4.65-0.62     C97.266,378.455,71.962,384.836,51.29,399.31z"/><path id="XMLID_2599_" style="fill:#FFFFFF;" d="M235.25,333.27c0.37,0.11,0.75,0.21,1.13,0.3c3.46,1.08,6.7,2.87,9.49,5.29     c31.024,26.878,27.411,75.113-7.59,96.28c-22.92,13.855-39.948,35.91-46.99,62.19C227.117,363.598,219.487,392.078,235.25,333.27     z"/><path id="XMLID_2598_" style="fill:#FFFFFF;" d="M312.97,378.28h-0.01l-12.66-27.17h-0.01l-10.52-22.58     c0.51-0.23,1-0.47,1.5-0.71c3.451-1.362,6.673-1.87,10.21-1.87c41.114,0.669,69.245,40.001,56.07,78.64     c-8.705,25.433-7.43,53.381,3.98,77.85L312.97,378.28z"/><path id="XMLID_2597_" style="fill:#FFFFFF;" d="M482.38,361.6c-114.159-53.234-46.533-21.697-153.91-71.77     c0.25-0.51,0.48-1.02,0.7-1.54c0.01-0.01,0.02-0.02,0.02-0.03c1.64-3.02,3.87-5.72,6.6-7.94     c32.108-26.081,78.877-13.588,93.49,24.19v0.01C439.438,330.538,458.601,350.51,482.38,361.6z"/><path id="XMLID_2596_" style="fill:#FFFFFF;" d="M357.3,228.85l-24.09,6.46c-0.11-0.45-0.24-0.9-0.36-1.35     c-0.75-3.43-0.809-7.093-0.11-10.65c7.769-40.281,51.306-61.283,87.17-41.56c1.38,0.76,2.77,1.48,4.17,2.18     c14.63,7.23,30.54,10.93,46.51,10.93c8.95,0,17.91-1.16,26.68-3.51C497.169,191.377,355.775,229.258,357.3,228.85z"/><path id="XMLID_2595_" style="fill:#FFFFFF;" d="M301.8,190.52c-3.28-2.3-6.06-5.34-8.05-8.92c-5.35-9.63-7.84-19.83-7.84-29.76     c0-4.5,0.51-8.94,1.49-13.24c0.46-1.45,0.85-2.91,1.18-4.38c6.13-19.77,22.45-35.99,45.24-40.49     c26.076-5.08,49.801-20.054,65.43-42.37C351.808,119.107,365.461,99.622,301.8,190.52z"/><path id="XMLID_2594_" style="fill:#95E8FD;stroke:#272325;stroke-miterlimit:10;" d="M79.29,79.35     c19.655,19.655,45.712,29.872,71.79,30.37c23.24,0.47,42.13,13.61,51.58,32.02c0.59,1.42,1.24,2.81,1.96,4.18     c5.711,13.631,6.203,28.823,1.18,43.38c-1.34,3.87-3.54,7.34-6.38,10.18C183.84,183.9,93.082,93.142,79.29,79.35z"/><path id="XMLID_2593_" style="fill:#95E8FD;stroke:#272325;stroke-miterlimit:10;" d="M7.06,234.24     c27.249,2.382,53.797-6.211,74.52-22.89c17.687-14.251,40.529-16.847,60.05-8.65c1.4,0.72,2.83,1.39,4.28,2     c12.56,6.47,23.04,17.54,28.74,32.44c1.484,3.873,2.009,8.015,1.66,11.9C5.378,234.093,7.601,234.287,7.06,234.24z"/><path id="XMLID_2592_" style="fill:#95E8FD;stroke:#272325;stroke-miterlimit:10;" d="M145.43,333.39v0.01l-94.14,65.91     c22.438-15.707,37.324-39.474,42.38-65.43c7.908-40.05,51.952-60.052,87.87-40.06c3.58,1.99,6.62,4.76,8.92,8.05l-20.47,14.33     L145.43,333.39z"/><path id="XMLID_2591_" style="fill:#95E8FD;stroke:#272325;stroke-miterlimit:10;" d="M191.29,497.33     c7.112-26.535,3.18-54.155-9.6-77.36c-5.12-9.3-7.5-19.14-7.5-28.75c0-11.43,3.37-22.53,9.48-31.99     c0.89-1.17,1.73-2.37,2.53-3.61c8.56-11.32,21.32-19.78,37.05-22.82c3.611-0.688,7.294-0.629,10.72,0.13     c0.43,0.12,0.85,0.24,1.28,0.34C217.184,400.667,225.538,369.494,191.29,497.33z"/><path id="XMLID_2590_" style="fill:#95E8FD;stroke:#272325;stroke-miterlimit:10;" d="M312.97,378.28l48.56,104.16     c-10.958-23.497-30.739-42.806-57.08-53.09c-37.917-14.684-50.187-61.495-24.19-93.5c2.22-2.73,4.92-4.96,7.94-6.6     c0.01,0,0.02-0.01,0.03-0.02c0.52-0.22,1.03-0.45,1.54-0.7l10.52,22.58h0.01l12.66,27.17H312.97z"/><path id="XMLID_2589_" style="fill:#95E8FD;stroke:#272325;stroke-miterlimit:10;" d="M482.38,361.6     c-24.43-11.393-52.337-12.716-77.86-3.98c-21.64,7.379-43.936,1.888-59.41-12.44c-1.04-1.13-2.13-2.23-3.27-3.27     c-10.47-11.319-15.95-26.161-15.95-40.79c0-3.38,0.65-6.7,1.87-9.79c0.24-0.5,0.48-0.99,0.71-1.5     C343.722,296.942,468.845,355.289,482.38,361.6z"/><path id="XMLID_2588_" style="fill:#95E8FD;stroke:#272325;stroke-miterlimit:10;" d="M497.27,191.35     c-24.41,6.54-45.55,21.83-59.68,43.03c-0.87,1.3-1.71,2.62-2.52,3.96c-21.011,34.744-69.21,38.825-96.27,7.59     c-2.39-2.76-4.16-5.95-5.26-9.35c-0.1-0.43-0.21-0.85-0.33-1.27l24.09-6.46C357.199,228.877,482.365,195.343,497.27,191.35z"/><path id="XMLID_2587_" style="fill:#95E8FD;stroke:#272325;stroke-miterlimit:10;" d="M399.25,51.36     c-14.49,20.69-20.87,45.99-18.06,71.31c0.17,1.55,0.38,3.11,0.62,4.67c0.5,3.2,0.74,6.37,0.74,9.47     c0,19.16-9.14,36.13-23.34,46.89c-1.27,0.82-2.5,1.68-3.7,2.59c-11.91,7.69-26.77,11.27-42.57,8.75     c-4.05-0.65-7.85-2.22-11.14-4.52l14.33-20.46C319.951,164.603,389.438,65.372,399.25,51.36z"/><path id="XMLID_2586_" style="fill:#FFFFFF;" d="M248.98,176.37c-3.87,0.347-8.009-0.169-11.9-1.66     c-38.514-14.74-51.336-61.363-25.79-93.07c0.98-1.22,1.94-2.46,2.85-3.72c14.609-21.822,22.307-44.527,20.03-70.8l10.02,114.49     C244.466,124.761,242.859,106.39,248.98,176.37z"/><path id="XMLID_2585_" style="fill:#95E8FD;stroke:#272325;stroke-miterlimit:10;" d="M244.19,121.61L234.17,7.12     c2.347,26.745,15.068,51.603,35.48,69.42c13.74,12.02,20.41,28.3,20.41,44.52c0,4.42-0.49,8.84-1.48,13.16     c-0.45,1.44-0.84,2.9-1.18,4.38c-4.16,13.55-13.26,25.85-26.99,34.07c-2.1,1.26-4.34,2.2-11.09,3.67     c-0.11,0.01-0.22,0.02-0.34,0.03C242.859,106.39,244.465,124.757,244.19,121.61z"/></g><g><g><path style="fill:#284887;" d="M256,286.083c16.565,0,30.042-13.477,30.042-30.041C286.042,239.477,272.565,226,256,226      s-30.042,13.477-30.042,30.042C225.958,272.606,239.435,286.083,256,286.083z M256,236c11.051,0,20.042,8.991,20.042,20.042      c0,11.051-8.991,20.041-20.042,20.041c-11.051,0-20.042-8.99-20.042-20.041C235.958,244.991,244.949,236,256,236z"/><path style="fill:#284887;" d="M256,261c2.734,0,5-2.239,5-5c0-1.32-0.53-2.601-1.47-3.54c-1.922-1.941-5.123-1.947-7.07,0      c-0.93,0.93-1.46,2.22-1.46,3.54C251,258.812,253.293,261,256,261z"/><path style="fill:#284887;" d="M153.243,187.233C153.039,187.237,153.12,187.236,153.243,187.233L153.243,187.233z"/><path style="fill:#284887;" d="M256,1C115.068,1,1,115.049,1,256c0,140.932,114.049,255,255,255c140.932,0,255-114.049,255-255      C511,115.068,396.951,1,256,1z M491.287,187.652c-20.164,4.364-41.052,2.26-60.118-5.965c7.327-14.599,6.214-32.45-3.306-46.052      c-9.526-13.597-25.923-20.751-42.146-18.865c-1.204-20.681,3.94-40.985,14.887-58.414      C443.634,89.924,476.019,135.176,491.287,187.652z M193.055,121.147c-11.267-10.208-25.857-16.059-41.693-16.421      c0.69-12.728,8.377-24.378,20.122-29.858c11.746-5.47,25.605-3.869,35.799,3.782      C197.381,91.015,192.476,105.954,193.055,121.147z M150.982,114.717c37.492,0.761,62.397,37.366,50.088,72.949      c-0.527,1.524-1.227,2.973-2.069,4.327l-12.222-12.222l0.377-26.559c0.04-2.762-2.167-5.031-4.928-5.07      c-2.573-0.103-5.03,2.048-5.07,4.928l-0.24,16.841l-11.339-11.339l0.377-26.56c0.04-2.762-2.167-5.031-4.928-5.07      c-2.574-0.103-5.03,2.048-5.07,4.928l-0.24,16.842l-40.749-40.749C126.347,112.147,138.485,114.463,150.982,114.717z       M214.226,166.51c4.051,3.661,8.599,6.833,13.562,9.453c-5.278,1.864-10.316,4.233-15.06,7.053      C213.923,177.517,214.428,171.98,214.226,166.51z M241.821,182.49c-4.293,5.507-7.254,11.847-8.606,18.565      c-5.699-3.791-12.267-6.179-19.187-7.039C222.272,188.421,231.689,184.439,241.821,182.49z M402.685,191.692      c-2.412-1.346-5.457-0.484-6.804,1.927l-12.954,23.19l-15.487,4.15l8.212-14.703c1.347-2.411,0.483-5.457-1.927-6.804      c-2.415-1.347-5.458-0.483-6.804,1.927l-12.953,23.19l-16.695,4.474c-0.052-1.594,0.066-3.199,0.372-4.782      c7.127-36.939,46.967-56.239,79.852-38.132c10.644,5.861,22.371,10.049,34.56,12.157l-55.66,14.914l8.213-14.704      C405.958,196.085,405.096,193.039,402.685,191.692z M340.915,255.21c4.117,3.721,8.6,6.879,13.371,9.406      c-5.133,1.66-10.092,3.987-14.789,6.931c0.929-5.023,1.439-10.191,1.44-15.479C340.936,255.772,340.918,255.5,340.915,255.21z       M297.946,194.02c-6.911,0.864-13.47,3.251-19.162,7.035c-1.352-6.718-4.313-13.058-8.607-18.565      C280.304,184.438,289.707,188.428,297.946,194.02z M269.815,172.268c4.42-3.428,8.34-7.323,11.683-11.615      c0.748,5.383,2.194,10.71,4.303,15.884C280.688,174.615,275.341,173.176,269.815,172.268z M256,329.832      c-6.911-5.481-11.75-13.207-13.174-21.871c8.635,2.192,17.711,2.193,26.349,0C267.75,316.625,262.911,324.35,256,329.832z       M238.959,215.954c0.126-0.041,0.254-0.072,0.378-0.123c0.099-0.041,0.188-0.097,0.283-0.144      c10.208-4.159,21.972-4.396,32.761,0c0.095,0.047,0.184,0.103,0.282,0.144c0.124,0.051,0.253,0.083,0.379,0.123      c21.877,9.336,32.387,34.65,23.201,56.752c-0.003,0.007-0.007,0.013-0.01,0.02C289.25,289.264,273.4,299.604,256,299.604      c-18.1,0-33.652-11.098-40.221-26.844c-0.005-0.011-0.006-0.023-0.011-0.034c-0.003-0.007-0.007-0.013-0.01-0.02      c-4.29-10.322-4.566-22.267,0.01-33.306c0.038-0.092,0.059-0.187,0.091-0.28C220.257,228.726,228.58,220.383,238.959,215.954z       M308.162,203.901c1.015,8.801-1.042,17.651-6.146,24.768c-4.565-7.645-10.977-14.061-18.619-18.629      C290.487,204.957,299.34,202.884,308.162,203.901z M204.086,269.235c-8.657-1.428-16.376-6.265-21.854-13.171      c5.477-6.905,13.192-11.74,21.844-13.17C201.866,251.614,201.913,260.688,204.086,269.235z M203.838,308.226      c-1.016-8.809,1.045-17.667,6.16-24.788c4.57,7.644,10.987,14.057,18.634,18.622      C221.535,307.159,212.686,309.244,203.838,308.226z M302.002,283.438c5.112,7.117,7.176,15.974,6.16,24.787      c-8.825,1.016-17.681-1.053-24.794-6.165C291.015,297.496,297.433,291.082,302.002,283.438z M307.914,269.235      c2.177-8.563,2.215-17.638,0.01-26.341c8.653,1.43,16.368,6.265,21.844,13.17C324.291,262.97,316.571,267.807,307.914,269.235z       M329.564,241.877c-5.505-4.289-11.842-7.248-18.556-8.599c3.785-5.692,6.172-12.251,7.036-19.162      C323.589,222.296,327.581,231.605,329.564,241.877z M320.411,200.791c5.506,0.212,10.945-0.245,16.444-1.426      c-2.893,4.607-5.222,9.615-6.94,14.935C327.183,209.484,323.997,204.964,320.411,200.791z M256,182.295      c6.899,5.472,11.732,13.181,13.166,21.827c-8.628-2.189-17.699-2.191-26.333,0C244.268,195.476,249.101,187.767,256,182.295z       M209.984,228.669c-5.102-7.114-7.162-15.963-6.146-24.768c8.771-1.008,17.645,1.037,24.765,6.139      C220.961,214.609,214.549,221.025,209.984,228.669z M193.953,214.091c0.861,6.92,3.25,13.488,7.039,19.188      c-6.718,1.352-13.059,4.313-18.566,8.606C184.376,231.752,188.358,222.335,193.953,214.091z M175.9,227.85      c-2.619-4.961-5.79-9.507-9.449-13.557c5.619,0.207,11.128-0.321,16.494-1.488C180.128,217.544,177.763,222.578,175.9,227.85z       M176.473,285.863c-5.174-2.109-10.501-3.554-15.883-4.302c4.292-3.343,8.186-7.263,11.615-11.682      C173.113,275.404,174.551,280.75,176.473,285.863z M200.992,278.849c-3.787,5.695-6.175,12.257-7.037,19.171      c-5.581-8.179-9.606-17.565-11.557-27.8C187.911,274.525,194.261,277.494,200.992,278.849z M200.712,320.461      c4.176,3.591,8.702,6.782,13.522,9.516c-5.313,1.716-10.315,4.042-14.917,6.929      C200.462,331.578,200.927,326.061,200.712,320.461z M214.143,318.097c6.878-0.873,13.404-3.258,19.072-7.026      c1.354,6.731,4.324,13.081,8.629,18.594C231.876,327.705,222.457,323.721,214.143,318.097z M256,341      c5.29,0,10.46-0.51,15.485-1.44c-2.946,4.7-5.273,9.662-6.933,14.797c-2.528-4.773-5.685-9.259-9.407-13.379      C255.249,340.979,255.894,340.996,256,341z M270.161,329.659c4.302-5.512,7.27-11.86,8.624-18.588      c5.687,3.782,12.238,6.169,19.143,7.035c-3.111,2.111-6.401,4.026-9.877,5.678c-0.115,0.052-0.28,0.083-0.429,0.152      C281.853,326.628,276.001,328.507,270.161,329.659z M315.487,316.611c0.405-0.298,0.762-0.656,1.06-1.061      c1.744-1.775,3.421-3.615,5.005-5.536c0.763,5.498,2.171,10.799,4.202,15.803c-5.004-2.031-10.305-3.438-15.802-4.202      C311.873,320.031,313.713,318.354,315.487,316.611z M323.999,287.475c-0.038,0.073-0.09,0.134-0.125,0.21      c-0.035,0.075-0.049,0.154-0.08,0.23c-1.585,3.463-3.516,6.861-5.745,10.141c-0.859-6.927-3.248-13.502-7.041-19.206      c6.714-1.351,13.05-4.309,18.554-8.597C328.353,276.496,326.333,282.561,323.999,287.475z M422.17,177.291      c-13.897-7.607-29.46-9.837-44.324-6.628c8.1-12.872,11.321-28.268,8.924-43.933c12.659-1.52,25.468,4.031,32.901,14.641      C427.099,151.983,427.931,165.916,422.17,177.291z M376.868,128.104c5.73,36.862-25.796,67.969-63.144,61.995      c-1.592-0.254-3.14-0.691-4.62-1.286l9.914-14.159l26.221-4.241c2.727-0.44,4.579-3.008,4.138-5.733      c-0.441-2.727-3.01-4.585-5.733-4.138l-16.626,2.688l9.198-13.135l26.221-4.241c2.727-0.44,4.579-3.008,4.138-5.733      c-0.439-2.726-3.013-4.583-5.733-4.138l-16.627,2.689l33.053-47.204C375.121,103.398,374.948,115.753,376.868,128.104z       M336.021,132.936l-3.16-16.544c-0.517-2.713-3.138-4.492-5.85-3.973c-2.712,0.518-4.491,3.137-3.973,5.85l4.983,26.09      l-9.198,13.136l-3.16-16.544c-0.518-2.713-3.139-4.49-5.85-3.973c-2.712,0.518-4.491,3.137-3.973,5.85l4.983,26.09      l-9.914,14.158c-1.065-1.187-2.005-2.493-2.789-3.901c-18.302-32.909-0.135-73.278,36.659-80.54      c12.262-2.42,23.813-6.807,34.29-12.903L336.021,132.936z M294.467,112.276c-2.068-15.063-9.493-28.924-21.392-39.382      c8.712-9.304,22.084-13.286,34.597-9.942c12.519,3.358,22.112,13.497,25.003,25.911      C317.143,91.97,303.79,100.266,294.467,112.276z M266.361,80.303c28.236,24.687,23.784,68.728-8.521,88.078      c-1.383,0.828-2.85,1.489-4.366,1.985l-1.507-17.219l17.362-20.104c1.805-2.09,1.574-5.247-0.517-7.052      c-2.087-1.805-5.246-1.574-7.052,0.517l-11.009,12.748l-1.398-15.975l17.361-20.104c1.805-2.09,1.574-5.247-0.517-7.052      c-2.087-1.805-5.247-1.574-7.052,0.517l-11.008,12.747l-5.022-57.407C249.142,62.5,256.951,72.076,266.361,80.303z       M148.649,155.782l-16.842,0.24c-2.761,0.039-4.968,2.309-4.928,5.07c0.04,2.863,2.481,5.031,5.07,4.928l26.56-0.377      l11.339,11.339l-16.841,0.24c-2.761,0.039-4.968,2.309-4.928,5.07c0.038,2.736,2.27,4.929,4.998,4.929      c1.071,0,8.699-0.123,26.632-0.378l12.222,12.222c-1.355,0.843-2.804,1.542-4.328,2.069      c-35.515,12.289-72.186-12.521-72.948-50.088c-0.254-12.497-2.57-24.635-6.754-36.012L148.649,155.782z M104.663,151.414      c0.36,15.84,6.212,30.434,16.422,41.703c-15.195-0.579-30.137,4.329-42.504,14.233c-7.649-10.201-9.25-24.066-3.778-35.805      C80.282,159.805,91.931,152.125,104.663,151.414z M84.718,215.243c29.123-23.446,71.778-11.583,85.26,23.687      c0.576,1.506,0.971,3.065,1.197,4.644l-17.219-1.507l-16.783-20.587c-1.744-2.142-4.894-2.462-7.034-0.716      c-2.141,1.744-2.461,4.893-0.716,7.034l10.641,13.054l-15.974-1.397l-16.783-20.587c-1.744-2.141-4.895-2.462-7.034-0.716      c-2.141,1.744-2.461,4.894-0.716,7.034l10.641,13.053l-57.404-5.022C64.196,229.109,74.983,223.081,84.718,215.243z       M109.326,248.202L96.579,259.21c-2.091,1.805-2.321,4.962-0.517,7.052c1.805,2.091,4.964,2.321,7.052,0.517l20.104-17.361      l15.975,1.398l-12.748,11.009c-2.091,1.805-2.321,4.962-0.517,7.052c1.806,2.091,4.964,2.321,7.052,0.517l20.104-17.362      l17.218,1.506c-0.496,1.516-1.156,2.983-1.984,4.366c-19.53,32.605-63.643,36.47-88.078,8.521      c-8.227-9.41-17.803-17.219-28.321-23.245L109.326,248.202z M183.014,300.975l-14.158,9.913l-26.09-4.983      c-2.713-0.522-5.332,1.262-5.85,3.973c-0.519,2.713,1.261,5.332,3.973,5.85l16.544,3.16l-13.136,9.198l-26.09-4.983      c-2.715-0.521-5.332,1.261-5.85,3.973c-0.519,2.713,1.261,5.332,3.973,5.85l16.544,3.16L85.67,369.137      c6.095-10.477,10.484-22.028,12.904-34.291C107.203,291.119,159.616,279.987,183.014,300.975z M138.609,344.276l-2.689,16.627      c-0.441,2.726,1.411,5.293,4.138,5.733c2.713,0.442,5.292-1.403,5.733-4.138l4.241-26.221l13.135-9.198l-2.689,16.627      c-0.491,3.031,1.848,5.799,4.941,5.799c2.41,0,4.533-1.747,4.93-4.203l4.241-26.221l14.159-9.914      c11.579,28.825-16.23,74.674-60.708,67.764c-12.349-1.921-24.705-1.749-36.635,0.396L138.609,344.276z M126.679,386.835      c15.667,2.398,31.055-0.826,43.921-8.924c-3.207,14.863-0.978,30.427,6.629,44.324c-11.381,5.761-25.313,4.928-35.916-2.501      C130.7,412.297,125.153,399.49,126.679,386.835z M186.066,417.56c-21.396-38.862,11.276-81.251,42.909-80.207l-4.469,16.679      l-23.19,12.953c-2.41,1.347-3.273,4.393-1.927,6.804c1.347,2.41,4.393,3.272,6.804,1.927l14.703-8.212l-4.15,15.488      l-23.19,12.953c-2.41,1.347-3.273,4.393-1.927,6.804c1.347,2.409,4.393,3.271,6.804,1.927l14.703-8.213l-14.914,55.66      C196.157,440.178,192.094,428.508,186.066,417.56z M222.797,399.049l8.628,14.465c1.402,2.351,4.463,3.159,6.855,1.732      c2.371-1.414,3.147-4.483,1.732-6.855l-13.606-22.812l4.15-15.489l8.628,14.466c0.936,1.568,2.596,2.439,4.299,2.439      c3.822,0,6.294-4.201,4.289-7.563l-13.606-22.813l4.468-16.676c28.567,15.273,34.652,68.18-2.942,90.914      c-10.696,6.468-20.05,14.542-27.81,23.854L222.797,399.049z M268.916,404.237c7.095,13.452,18.807,23.946,33.568,29.705      c-5.005,11.725-16.211,20.044-29.117,21.173c-12.91,1.137-25.387-5.115-32.353-15.795      C254.553,431.085,264.265,418.717,268.916,404.237z M306.257,424.683c-34.964-13.535-45.86-56.443-22.116-85.68      c1.017-1.252,2.169-2.376,3.424-3.361l7.305,15.666l-9.439,24.829c-1.244,3.273,1.183,6.777,4.673,6.777      c2.016,0,3.916-1.228,4.675-3.225l5.985-15.744l6.777,14.532l-9.439,24.83c-0.981,2.581,0.316,5.469,2.897,6.45      c2.573,0.979,5.468-0.311,6.45-2.897l5.985-15.745l24.355,52.229C328.528,435.524,317.914,429.196,306.257,424.683z       M322.496,386.893l15.907,5.536c2.609,0.903,5.458-0.473,6.366-3.079c0.907-2.608-0.472-5.458-3.079-6.366l-25.089-8.731      l-6.776-14.531l15.906,5.535c2.609,0.904,5.458-0.473,6.366-3.079c0.907-2.608-0.472-5.458-3.079-6.366l-25.088-8.73      l-7.302-15.66c1.618-0.341,3.229-0.495,4.772-0.469c37.65,0.605,63.528,36.521,51.419,72.018      c-4.036,11.83-6.011,24.027-5.971,36.148L322.496,386.893z M361.179,361.242c14.076,5.737,29.789,6.234,44.791,1.159      c3.7,12.198,0.462,25.773-8.697,34.937c-9.153,9.156-22.729,12.399-34.937,8.701      C367.413,391.035,366.916,375.32,361.179,361.242z M402.908,352.883c-35.496,12.115-71.412-13.773-72.018-51.419      c-0.026-1.612,0.136-3.213,0.464-4.774l15.664,7.304l8.73,25.088c0.719,2.064,2.653,3.358,4.723,3.358      c3.435,0,5.852-3.396,4.723-6.645l-5.535-15.906l14.531,6.776l8.731,25.089c0.905,2.6,3.745,3.987,6.366,3.079      c2.607-0.908,3.986-3.758,3.079-6.366l-5.536-15.907l52.228,24.354C426.935,346.872,414.737,348.848,402.908,352.883z       M391.055,313.495l15.744-5.985c2.581-0.981,3.879-3.869,2.897-6.45c-0.98-2.581-3.873-3.876-6.45-2.897l-24.83,9.439      l-14.533-6.777l15.743-5.985c2.581-0.981,3.879-3.869,2.897-6.45c-0.98-2.582-3.872-3.875-6.45-2.897l-24.829,9.439      l-15.665-7.305c0.985-1.255,2.107-2.408,3.359-3.424c10.504-8.53,23.565-13.235,37.41-12.639c1.622,0.202,3.255,0.352,4.9,0.43      c19.342,2.598,35.925,15.093,43.371,34.325c4.513,11.657,10.841,22.271,18.664,31.531L391.055,313.495z M433.882,302.555      c-5.758-14.766-16.254-26.48-29.708-33.576c14.48-4.651,26.848-14.363,35.083-27.901c10.675,6.973,16.922,19.453,15.801,32.35      C453.919,286.334,445.601,297.543,433.882,302.555z M430.795,235.754c-19.406,32.092-63.556,35.357-88.221,6.902      c-1.056-1.218-1.96-2.548-2.712-3.954l16.695-4.473l22.813,13.606c2.375,1.418,5.444,0.634,6.855-1.733      c1.415-2.372,0.639-5.441-1.732-6.855l-14.466-8.628l15.488-4.15l22.813,13.606c2.375,1.419,5.444,0.634,6.855-1.732      c1.415-2.372,0.639-5.441-1.732-6.855l-14.465-8.627l55.663-14.915C445.337,215.705,437.263,225.059,430.795,235.754z       M392.218,52.458c-12.637,16.259-29.965,28.046-49.823,33.989c-3.763-15.892-16.091-28.851-32.135-33.154      c-16.038-4.29-33.188,0.768-44.395,12.649c-14.236-15.085-23.354-33.972-26.163-54.387      C294.279,7.953,347.448,22.399,392.218,52.458z M238.176,110.259l-13.053-10.641c-2.141-1.746-5.29-1.425-7.034,0.716      c-1.745,2.141-1.425,5.29,0.716,7.034l20.587,16.783l1.398,15.974l-13.054-10.641c-2.14-1.745-5.29-1.424-7.034,0.716      c-1.745,2.141-1.425,5.29,0.716,7.034l20.588,16.783l1.507,17.22c-1.579-0.225-3.138-0.621-4.644-1.198      c-35.173-13.445-47.205-56.047-23.687-85.26c7.838-9.735,13.866-20.521,17.974-31.925L238.176,110.259z M229.497,12.438      c0.781,20.596-4.919,40.783-16.321,58.113c-13.099-9.754-30.867-11.759-45.918-4.747c-15.052,7.023-24.942,21.925-25.888,38.23      c-20.553-2.4-39.635-10.973-54.891-24.748C124.523,42.777,174.29,18.404,229.497,12.438z M79.224,86.543      c13.771,15.252,22.343,34.328,24.746,54.874c-16.298,0.951-31.209,10.856-38.23,25.902c-7.012,15.046-5.009,32.819,4.743,45.924      c-17.313,11.388-37.471,17.085-58.051,16.317C18.382,174.359,42.735,124.593,79.224,86.543z M11.551,239.773      c23.602,3.262,45.168,14.941,61.16,33.233c10.475,11.981,24.395,19.437,39.521,21.51c-12.064,9.358-20.388,22.78-23.469,38.395      c-4.7,23.815-17.519,44.693-36.299,59.316C23.261,348.736,7.867,295.825,11.551,239.773z M187.605,491.273      c-52.449-15.272-97.679-47.643-129.236-90.652c17.416-10.917,37.695-16.044,58.35-14.839      c-1.895,16.222,5.256,32.613,18.855,42.141c13.59,9.521,31.441,10.64,46.051,3.31      C189.839,450.273,191.946,471.133,187.605,491.273z M197.504,493.924c6.311-19.614,18.568-36.627,35.203-49.009      c8.274,12.584,22.53,20.331,37.667,20.331c18.116,0,34.292-11.064,41.265-27.236c18.534,9.306,33.559,23.933,43.18,42.153      C303.609,502.826,248.011,506.345,197.504,493.924z M364.1,475.82c-7.768-19.076-9.313-39.982-4.531-60.156      c15.636,4.671,33.023,0.502,44.776-11.257c11.738-11.744,15.933-29.128,11.251-44.774c20.186-4.787,41.102-3.239,60.188,4.54      C451.88,412.542,412.478,451.932,364.1,475.82z M437.95,311.707c14.99-6.474,25.61-20.865,27.069-37.406      c1.438-16.534-6.525-32.548-20.169-41.53c12.398-16.658,29.438-28.925,49.083-35.23c12.532,50.998,8.692,106.57-13.805,157.356      C461.897,345.277,447.262,330.248,437.95,311.707z"/></g></g></g></g><g id="Layer_1"/></svg>